<?xml version="1.0" encoding="UTF-8" standalone="no"?>
<!-- Created with Inkscape (http://www.inkscape.org/) -->

<svg
   xmlns:dc="http://purl.org/dc/elements/1.1/"
   xmlns:cc="http://creativecommons.org/ns#"
   xmlns:rdf="http://www.w3.org/1999/02/22-rdf-syntax-ns#"
   xmlns:svg="http://www.w3.org/2000/svg"
   xmlns="http://www.w3.org/2000/svg"
   xmlns:sodipodi="http://sodipodi.sourceforge.net/DTD/sodipodi-0.dtd"
   xmlns:inkscape="http://www.inkscape.org/namespaces/inkscape"
   id="svg2"
   version="1.1"
   inkscape:version="0.48.5 r10040"
   width="1053.6125"
   height="745.35"
   xml:space="preserve"
   sodipodi:docname="ThumbsUp2.eps"><metadata
     id="metadata8"><rdf:RDF><cc:Work
         rdf:about=""><dc:format>image/svg+xml</dc:format><dc:type
           rdf:resource="http://purl.org/dc/dcmitype/StillImage" /><dc:title></dc:title></cc:Work></rdf:RDF></metadata><defs
     id="defs6"><clipPath
       clipPathUnits="userSpaceOnUse"
       id="clipPath18"><path
         d="M 0,5962.75 0,0 l 8428.9,0 0,5962.75"
         id="path20" /></clipPath></defs><sodipodi:namedview
     pagecolor="#ffffff"
     bordercolor="#666666"
     borderopacity="1"
     objecttolerance="10"
     gridtolerance="10"
     guidetolerance="10"
     inkscape:pageopacity="0"
     inkscape:pageshadow="2"
     inkscape:window-width="640"
     inkscape:window-height="846"
     id="namedview4"
     showgrid="false"
     inkscape:zoom="0.31662978"
     inkscape:cx="526.80627"
     inkscape:cy="372.67499"
     inkscape:window-x="0"
     inkscape:window-y="0"
     inkscape:window-maximized="0"
     inkscape:current-layer="g14" /><g
     id="g10"
     inkscape:groupmode="layer"
     inkscape:label="ink_ext_XXXXXX"
     transform="matrix(1.25,0,0,-1.25,0,745.35)"><g
       id="g12"
       transform="scale(0.1,0.1)"><g
         id="g14"><g
           id="g16"
           clip-path="url(#clipPath18)"><path
             d="m 5,5 8418.9,0 0,5952.75 L 5,5957.75 5,5 z"
             style="fill:none;stroke:#ffffff;stroke-opacity:1;stroke-width:10;stroke-linecap:butt;stroke-linejoin:miter;stroke-miterlimit:4;stroke-dasharray:none"
             id="path22" /><path
             d="m 1085.09,2959.73 c 0,0 293.07,44.75 306.5,51.46 -4.48,13.43 2.24,51.46 2.24,51.46 -44.75,-6.72 -241.62,-40.27 -400.463,147.65 87.253,-6.71 174.503,11.19 290.833,44.74 76.07,29.09 114.1,46.99 167.79,20.14 15.66,67.12 73.83,167.78 290.84,199.11 13.42,42.51 -4.48,109.62 -93.96,161.08 80.53,15.66 156.6,-8.95 194.63,-49.22 -38.03,80.54 -76.06,138.7 -76.06,138.7 111.86,-24.6 183.45,-60.4 225.95,-149.89 0,46.98 -11.18,132 -11.18,132 0,0 145.42,-167.79 145.42,-263.99 93.95,-20.14 187.92,-64.87 219.24,-181.21 109.62,-4.48 203.57,-29.09 310.96,-58.17 107.39,-29.08 208.06,-42.5 272.94,-31.32 -118.56,-96.2 -237.14,-201.35 -391.5,-205.82 -40.28,2.24 -136.48,13.42 -248.33,116.33 73.83,-116.33 116.33,-230.42 107.38,-272.93 -6.71,-26.85 -98.44,-53.7 -98.44,-53.7 0,0 67.13,-181.19 223.73,-239.37 107.39,-38.03 261.74,-73.82 476.52,-78.3 114.1,0 228.19,26.85 275.17,-22.37 46.99,-49.22 85.02,-82.77 85.02,-82.77 0,0 143.14,-64.89 181.17,-181.22 -40.26,-8.94 -60.4,-4.47 -60.4,-4.47 0,0 60.41,-91.73 64.89,-176.74 -46.99,22.38 -71.6,40.28 -71.6,40.28 0,0 11.19,-136.48 4.48,-170.03 -31.32,26.84 -67.12,80.54 -67.12,80.54 0,0 -29.08,-149.89 -100.68,-246.09 26.85,-24.61 76.07,-40.27 76.07,-40.27 l -208.06,-438.48 c 0,0 111.86,-205.829 -217.01,-138.71 6.72,62.65 38.03,143.19 147.66,129.77 53.69,127.52 123.03,315.44 107.38,342.28 -15.65,26.85 -114.09,64.88 -114.09,64.88 l -170.03,-328.86 c 0,0 78.3,-183.45 -232.67,-145.42 24.61,78.3 67.12,140.94 149.9,149.89 42.5,78.3 228.19,344.53 120.81,378.09 -89.5,-31.33 -304.27,-116.34 -489.96,-35.81 2.25,-91.71 6.72,-143.17 6.72,-143.17 0,0 127.52,-71.6 8.95,-158.85 11.19,-131.99 17.9,-286.35 17.9,-286.35 0,0 80.54,-60.389 53.69,-114.1 -26.85,-53.699 -187.93,-120.801 -270.7,-76.059 -22.38,22.36 -35.8,64.868 80.53,167.779 42.51,44.75 87.27,20.14 55.94,295.32 -44.74,29.08 -89.49,51.45 -15.66,154.36 -15.67,73.83 -64.89,230.43 -64.89,230.43 0,0 67.12,187.93 15.67,313.21 33.56,-4.47 127.53,-87.25 127.53,-87.25 0,85.02 -22.37,190.15 -64.88,225.95 51.45,-17.89 80.53,-22.37 80.53,-22.37 -24.61,147.66 -69.35,239.39 -127.52,340.06 -58.16,100.67 -156.6,165.56 -183.44,205.82 -17.9,20.14 -20.14,69.36 -20.14,69.36 l -91.72,-15.67 c 0,0 -315.44,-306.5 -387.04,-420.59 -13.42,-24.61 -53.7,-89.49 -26.85,-138.71 -26.84,4.48 -85.01,17.9 -85.01,17.9 l 29.09,-67.11 -109.63,44.74 15.67,-73.83 c 0,0 -261.76,158.85 -261.76,181.22 0,22.38 46.99,85.01 46.99,85.01 l -225.96,624.18"
             style="fill:#7e5c36;fill-opacity:1;fill-rule:nonzero;stroke:none"
             id="path24" /><path
             d="m 2288.66,1552.6 -6.71,-51.45 c 0,0 85.02,-22.37 11.19,-116.34 -4.48,-105.15 -11.2,-190.17 22.37,-270.7 11.19,-22.38 6.73,-105.14 -100.67,-145.411 -42.51,-20.14 -149.89,-6.719 -149.89,33.551 6.71,44.75 80.53,107.37 145.41,140.94 17.9,8.95 17.91,114.11 4.48,230.44 -20.13,15.65 -58.17,17.89 -58.17,44.74 0,26.84 29.08,85.01 29.08,85.01 l -17.89,116.33 c 0,0 98.43,47 120.8,-67.11"
             style="fill:#7e5c36;fill-opacity:1;fill-rule:nonzero;stroke:none"
             id="path26" /><path
             d="m 5237.59,3646.48 c 0,0 725.2,-65.04 872.17,108.42 120.45,0 308.38,12.05 356.57,40.96 -40.96,-74.69 -84.33,-108.42 -84.33,-108.42 l 130.1,-7.23 -72.28,-53 c 0,0 151.79,14.45 236.12,-55.42 -67.46,-7.22 -139.74,-16.86 -173.47,-60.23 74.69,-55.41 86.73,-101.19 86.73,-130.1 0,-28.91 -12.04,-175.88 154.2,-433.67 -31.33,-4.82 -89.15,-4.82 -89.15,-4.82 l -144.55,86.73 2.4,178.29 -77.09,-113.23 c 0,0 106.01,-108.43 245.74,-159.02 -42.71,-6.41 -301.64,-204.09 -364.93,-468.8 -5.39,-22.55 -29.14,-45.59 -30.97,-69.03 -0.91,-11.76 -11.34,-23.62 -11.26,-35.57 19.28,-77.09 36.15,-89.14 36.15,-89.14 0,0 91.55,-65.05 113.23,-156.6 -24.09,14.45 -67.46,36.13 -67.46,36.13 0,0 62.63,-110.82 72.27,-195.15 -43.36,48.19 -74.68,77.1 -74.68,77.1 l 19.27,-134.92 -86.74,127.69 c -14.45,-62.64 -84.31,-221.65 -84.31,-221.65 0,0 55.41,0 62.64,-26.51 7.22,-43.37 -69.88,-358.99 -199.98,-614.37 65.05,-55.41 89.15,-81.91 62.65,-127.69 -26.5,-45.781 -163.83,0 -183.1,31.32 -7.23,12.04 -40.96,45.78 50.59,93.97 43.36,62.63 202.37,356.56 163.83,493.89 -19.28,19.28 -50.6,31.33 -50.6,31.33 0,0 -81.91,-332.49 -199.97,-481.87 26.51,-48.18 31.33,-89.13 -55.41,-110.82 -38.55,-9.63 -209.62,-7.22 -98.79,81.92 24.11,14.45 106.02,28.9 106.02,28.9 0,0 180.7,334.9 142.15,486.68 -50.6,-24.09 -120.47,-36.14 -120.47,-36.14 l -53,-139.73 c 0,0 45.78,-57.83 -43.37,-132.51 -12.05,-69.88 -33.74,-103.61 -38.55,-243.34 106.01,-45.78 199.97,-101.19 199.97,-154.189 0,-19.282 -166.24,-65.051 -291.53,26.499 0,43.36 26.51,89.14 36.15,139.74 9.64,50.59 48.18,243.34 48.18,243.34 0,0 -31.33,36.13 -26.5,79.5 4.82,12.05 48.19,48.18 48.19,48.18 l 40.96,134.92 c 0,0 -103.6,-4.81 -166.24,93.97 -62.65,98.78 -4.82,-26.5 -9.64,-209.61 28.9,-36.14 65.05,-65.04 7.22,-130.1 4.82,-122.88 4.83,-228.87 9.64,-358.98 0,-38.56 -67.45,-67.471 -149.37,-81.928 -48.2,-12.043 -137.34,-7.223 -144.56,36.148 -4.82,31.31 60.24,106.01 228.88,151.78 4.82,86.74 2.41,238.52 2.41,238.52 0,0 -50.59,50.6 -45.77,81.92 4.81,31.32 33.73,50.6 33.73,50.6 0,0 -120.46,267.43 -84.33,366.21 36.13,98.78 332.47,1076.95 397.53,1173.32 9.64,-16.87 50.59,-65.05 50.59,-65.05 0,0 -96.36,-159.01 -65.04,-436.08 21.68,0 115.65,19.26 137.33,4.81 24.09,154.2 0,284.3 -43.37,392.72 -24.09,72.28 -178.3,240.93 -305.99,308.39 50.6,89.15 168.66,245.75 168.66,245.75 0,0 -161.43,-108.42 -284.3,-96.38 -122.87,12.05 -265.05,130.09 -301.17,221.65"
             style="fill:#7e5c36;fill-opacity:1;fill-rule:nonzero;stroke:none"
             id="path28" /><path
             d="m 7275.13,4512.81 c 0,0 101.24,-235.15 -146.98,-215.55 -19.59,-173.1 -104.51,-529.09 -248.21,-633.6 35,20 -199.22,45.73 -199.22,45.73 0,0 -128.57,-65.22 -240.9,-82.18 37.68,28.04 62.68,50.54 62.68,50.54 l -120.5,9.69 c 45.5,35.31 84.33,108.42 84.33,108.42 0,0 -186.33,-58.11 -353.83,-33.11 -85,-75 -132.5,-72.5 -132.5,-72.5 0,0 -270,70 -360,227.5 27.5,77.5 97.5,160 97.5,160 0,0 -5,-87.5 280,-182.5 10,7.5 32.5,187.5 -40,262.5 -47.5,7.5 -262.5,50 -295,117.5 -32.5,67.5 -25,327.5 -25,327.5 l 175,55 c 0,0 -42.5,-147.5 -10,-230 32.5,-82.5 117.5,-107.5 175,-132.5 -17.5,80 -25,282.5 -2.5,332.5 75,25 202.5,67.5 202.5,67.5 -45,-127.5 -140,-282.5 0,-845 82.5,187.5 170,427.5 95,657.5 137.5,77.5 295,110 295,110 l 95,-147.5 c 0,0 -137.5,20 -190,-42.5 -52.5,-62.5 -27.5,-182.5 2.5,-202.5 30,-20 185,75 185,75 0,0 37.5,-130 20,-162.5 -17.5,-32.5 -175,-40 -212.5,-32.5 -22.5,-67.5 -42.5,-215 -42.5,-215 0,0 125,20 195,52.5 17.5,12.5 8.47,31.18 86.85,-11.28 -2.5,-35 13.06,26.13 68.59,-78.38 71.85,75.11 53.47,127.47 113.47,164.97 23.7,66.91 36.75,135.5 66.15,285.73 -75,40 -147.74,47.41 -150.24,84.91 -2.5,37.5 35.74,212.85 45.74,225.35 62.5,-57.5 225.34,-101.24 424.57,-101.24"
             style="fill:#9d9085;fill-opacity:1;fill-rule:nonzero;stroke:none"
             id="path30" /><path
             d="m 2176.83,2711.46 c 0,0 -22.37,-38.03 145.42,-183.45 26.84,-26.84 136.46,-149.88 190.15,-413.87 -31.32,-4.49 -82.77,17.89 -82.77,17.89 0,0 51.46,-62.64 69.35,-214.77 -42.51,31.32 -134.23,91.72 -134.23,91.72 0,0 38.02,-120.8 26.84,-199.1 -11.18,-78.3 -73.82,-152.13 -64.87,-279.65 -55.93,31.32 -109.62,102.91 -109.62,102.91 l 2.24,-76.06 c 0,0 -138.71,89.48 -111.87,241.61 -40.26,-42.5 -69.35,-73.83 -69.35,-73.83 0,0 -6.7,143.17 29.09,203.58 -26.85,-24.61 -62.64,-35.79 -62.64,-35.79 l 46.97,196.88 -73.82,-33.57 c 31.32,116.34 82.77,234.91 181.21,319.92 -46.98,116.34 -93.96,201.35 -134.23,259.52 40.27,44.74 69.35,73.82 69.35,73.82 0,0 69.35,26.85 82.78,2.24"
             style="fill:#9d9085;fill-opacity:1;fill-rule:nonzero;stroke:none"
             id="path32" /><path
             d="m 1646.61,2964.27 c 41.45,-31.77 46.97,-98.43 -71.6,-297.55 -15.65,-33.55 -33.55,-102.91 -24.6,-201.34 0,-35.79 22.37,-76.06 -194.64,-111.86 -78.3,-17.9 -190.15,-11.18 -221.48,71.59 -11.18,33.56 -17.9,181.21 -17.9,181.21 0,0 -181.21,194.63 -181.21,263.99 0,69.35 20.133,120.8 82.77,114.1 62.65,-6.71 134.24,-91.73 185.69,-118.57 26.85,-13.43 40.28,-47 147.66,11.18 107.38,58.17 228.19,138.71 295.31,87.25"
             style="fill:#9d9085;fill-opacity:1;fill-rule:nonzero;stroke:none"
             id="path34" /><path
             d="m 2141.04,3476.59 c 0,0 630.88,8.96 695.76,284.13 -71.59,58.16 -203.6,158.84 -445.21,73.83 2.25,-58.17 -11.19,-107.39 -105.14,-100.68 -49.22,6.71 -98.43,26.85 -118.57,78.3 -20.14,51.46 -13.43,87.25 -13.43,87.25 0,0 -96.2,-6.71 -89.48,118.57 2.23,49.22 2.23,109.63 44.74,125.29 -33.56,29.08 -46.98,49.22 -22.37,114.09 24.6,64.88 71.59,134.24 302.02,60.41 6.71,40.27 -2.23,71.58 -69.35,163.31 -22.37,29.09 -44.75,140.95 55.93,185.69 58.16,26.84 165.54,38.03 183.44,17.89 17.91,-20.13 -40.27,-158.84 -40.27,-190.16 0,-31.32 -33.56,-176.74 102.91,-241.61 136.48,-64.88 322.17,-147.66 360.2,-178.98 38.02,-31.32 127.52,-239.38 60.4,-474.28 -8.95,-38.03 -71.58,-181.21 -286.36,-208.06 -91.73,-11.18 -324.38,31.32 -434.01,-69.35 -58.18,80.54 -118.58,111.85 -196.88,116.33 0,17.9 -2.23,40.27 15.67,38.03"
             style="fill:#9d9085;fill-opacity:1;fill-rule:nonzero;stroke:none"
             id="path36" /><path
             d="m 1751.76,3505.67 c 0,0 -337.8,6.72 -507.83,275.18 29.08,49.22 120.81,114.1 395.98,161.08 8.94,-58.17 40.26,-105.15 109.62,-82.78 69.35,22.37 98.43,53.7 111.86,111.86 13.42,58.17 -22.38,89.49 -35.8,100.68 51.46,17.89 67.12,62.64 60.41,116.33 -6.72,53.69 -38.04,102.91 -73.83,102.91 29.08,38.03 17.9,80.54 -4.47,120.81 -22.38,40.27 -73.83,123.04 -308.74,-33.56 -8.95,26.85 -8.94,85.01 0,143.18 8.95,58.17 20.14,163.32 -138.7,183.45 -85.02,13.42 -127.53,-29.09 -118.58,-58.17 8.95,-29.08 69.36,-123.04 116.34,-221.48 6.71,-17.9 -11.19,-105.15 -67.12,-156.6 -55.92,-51.46 -140.93,-149.9 -286.35,-290.84 -20.14,-20.13 -76.073,-127.51 17.89,-299.78 29.08,-46.98 136.47,-183.45 319.92,-223.72 114.1,-33.55 210.3,-46.98 210.3,-46.98 0,0 100.67,76.06 187.92,60.4 0,11.19 11.18,38.03 11.18,38.03"
             style="fill:#9d9085;fill-opacity:1;fill-rule:nonzero;stroke:none"
             id="path38" /><path
             d="m 1863.23,2672.41 c 0,0 -115.95,-272.52 -295.24,-380.1 -37.05,-15.54 -207.98,-33.48 -230.69,7.17 -8.37,5.98 39.44,51.39 161.36,84.86 8.37,4.79 49.01,31.09 53.79,70.53 164.95,100.4 253.4,152.99 310.78,217.54"
             style="fill:#a55429;fill-opacity:1;fill-rule:nonzero;stroke:none"
             id="path40" /><path
             d="m 1696.9,3179.88 c 0,-19.69 4.89,-44.95 -9.84,-55.07 -47.54,-32.67 -50.85,-30.46 -94.45,-54.61 -11.46,-6.35 -25.64,-17 -37.2,-11.51 -39.23,18.63 -67.09,65.87 -67.09,121.19 0,71.62 46.69,129.67 104.29,129.67 57.6,0 104.29,-58.05 104.29,-129.67"
             style="fill:#f5f09d;fill-opacity:1;fill-rule:nonzero;stroke:none"
             id="path42" /><path
             d="m 2095.31,3180.98 c 0,-74.06 -48.17,-134.09 -107.6,-134.09 -59.43,0 -107.6,60.03 -107.6,134.09 0,74.06 48.17,134.09 107.6,134.09 59.43,0 107.6,-60.03 107.6,-134.09"
             style="fill:#f5f09d;fill-opacity:1;fill-rule:nonzero;stroke:none"
             id="path44" /><path
             d="m 5775,3192.75 c 0,0 -62.5,-10 -130,-367.5 -7.5,-50 -62.5,-112.5 -107.5,-140 -45,-27.5 -145,-85 -200,-242.5 30,20 72.5,45 72.5,45 0,0 -112.5,-100 -97.5,-372.5 20,32.5 47.5,60 47.5,60 0,0 -67.5,-155 85,-365 -5,45 2.5,117.5 2.5,117.5 0,0 17.5,-102.5 95,-165 77.5,-62.5 162.5,-112.5 162.5,-112.5 0,0 -15,182.5 -87.5,280 42.5,-25 90,-42.5 90,-42.5 l -92.5,280 125,-50 -82.5,202.5 117.5,-70 c 0,0 -70,192.5 -27.5,390 42.5,197.5 70,320 135,440 -35,52.5 -107.5,112.5 -107.5,112.5"
             style="fill:#9d9085;fill-opacity:1;fill-rule:nonzero;stroke:none"
             id="path46" /><path
             d="m 6497.5,2900.25 c 0,0 222.5,75 290,27.5 67.5,-47.5 75,-125 60,-167.5 -15,-42.5 -57.5,-80 -275,-95 -32.5,-50 -112.5,-185 -112.5,-185 0,0 -50,-20 -85,2.5 -35,22.5 -97.5,105 -225,75 40,112.5 60,207.5 35,355 -25,147.5 -40,225 50,260 32.5,12.5 120,-20 167.5,-95 47.5,-75 95,-177.5 95,-177.5"
             style="fill:#9d9085;fill-opacity:1;fill-rule:nonzero;stroke:none"
             id="path48" /><path
             d="m 6212.5,3585.25 c 0,0 -162.5,-35 -200,-257.5 -2.5,-17.5 -10,-90 65,-80 35,5 95,50 117.5,145 22.5,95 20,145 17.5,192.5"
             style="fill:#f5f09d;fill-opacity:1;fill-rule:nonzero;stroke:none"
             id="path50" /><path
             d="m 6342.5,3355.25 c 13.7,9.67 67.5,25 82.5,35 15,10 52.5,17.5 67.5,12.5 15,-5 30,-202.5 -130,-210 -40,52.5 -62.5,132.5 -20,162.5"
             style="fill:#f5f09d;fill-opacity:1;fill-rule:nonzero;stroke:none"
             id="path52" /><path
             d="m 6160,2572.75 c 0,0 -55,-77.5 -32.5,-97.5 22.5,-20 87.5,-22.5 102.5,82.5 -37.5,0 -70,15 -70,15"
             style="fill:#a55429;fill-opacity:1;fill-rule:nonzero;stroke:none"
             id="path54" /><path
             d="m 2938.6,3700.04 c -73.96,65.38 -146.82,134.27 -243.39,163.66 -137.83,41.93 -294.11,0.76 -427.82,-36.18 -18.47,-5.1 -13.43,-34.7 5.22,-29.54 130.36,36.02 277.69,74.81 412.18,37.57 93.74,-25.94 165.77,-97.47 236.61,-160.09 14.49,-12.81 31.54,11.9 17.2,24.58"
             style="fill:#231f20;fill-opacity:1;fill-rule:nonzero;stroke:none"
             id="path56" /><path
             d="m 2373.55,3838.48 c 5.22,-17.45 6.38,-36.4 1.05,-53.91 -14.38,-47.2 -98.99,-27.1 -134.11,-21.6 -39.46,6.2 -53.84,33.82 -69.69,67.2 -29.38,61.85 23.21,100.28 70.64,130.7 16.03,10.28 3.4,37.54 -12.88,27.09 -50.89,-32.63 -107.59,-72.83 -95.24,-140.54 8.27,-45.34 39.07,-95.52 84.34,-109.84 48.01,-15.19 132.24,-27.1 171.07,13.27 22.54,23.43 23.19,63.3 14.38,92.83 -5.47,18.31 -35.08,13.31 -29.56,-5.2"
             style="fill:#231f20;fill-opacity:1;fill-rule:nonzero;stroke:none"
             id="path58" /><path
             d="m 2141.89,3921.3 c -56.4,-18.94 -64.15,94.74 -63.25,133.09 2,84.48 77.04,92.8 145.64,101.92 19.2,2.55 13.9,32.08 -5.22,29.54 -45.52,-6.05 -94.21,-11.52 -132.48,-39.04 -34.74,-24.98 -38.39,-73.32 -37.93,-112.1 0.69,-57.76 23.2,-168.37 106.12,-140.51 18.29,6.14 5.26,33.19 -12.88,27.1"
             style="fill:#231f20;fill-opacity:1;fill-rule:nonzero;stroke:none"
             id="path60" /><path
             d="m 2106.93,4166.7 c -40.58,21.87 -2.85,92.25 8.81,122.51 9.73,25.26 45.17,31.5 68.22,35.44 84.52,14.45 177.26,-12.73 255.83,-40.97 18.24,-6.56 28.62,21.6 10.42,28.14 -96.1,34.55 -224.49,71.76 -323.58,27.21 -38.93,-17.51 -48.52,-61.47 -59.89,-98.67 -10.96,-35.85 -14.21,-78.19 22.99,-98.23 16.83,-9.07 34.23,15.4 17.2,24.57"
             style="fill:#231f20;fill-opacity:1;fill-rule:nonzero;stroke:none"
             id="path62" /><path
             d="m 2397.29,4309.15 c 18.02,27.95 10.3,54.7 -4.69,82.5 -26.48,49.09 -69.96,88.02 -77.52,145.78 -7.75,59.24 35.49,103.4 85.82,124.77 16.48,7.01 143.46,35.65 148.73,7.62 6.32,-33.56 -22.5,-88.24 -31.8,-120.01 -12.26,-41.98 -24.11,-86.24 -22.26,-130.34 4.84,-115.89 97.93,-168.53 191.4,-215.98 59.43,-30.17 120.39,-57.24 180.75,-85.44 37.42,-17.47 101.06,-37.41 123.52,-75.34 53.97,-91.17 57.7,-214.04 55.03,-316.24 -2.03,-77.82 -11.05,-155.19 -68.71,-212.77 -79.75,-79.63 -215.8,-112.03 -324.45,-115.96 -109.23,-3.96 -258.32,23.21 -344.49,-61.88 -13.66,-13.5 5.61,-36.52 19.42,-22.89 81.48,80.49 232.22,51.63 335.97,55.39 99.71,3.61 211.23,34.64 294.19,91.68 145.17,99.83 132.73,307.87 104.78,462.07 -12.33,67.99 -31.25,139.29 -92.7,177.09 -110.27,67.8 -236.4,107.85 -348.51,172.98 -121.94,70.83 -99.87,185.87 -66.03,300.36 10.34,35.01 53.07,124.59 -10.9,134.6 -84.21,13.17 -209.37,-10.64 -246.82,-97.92 -17.85,-41.6 -16.24,-83.77 1.01,-125.26 16.21,-38.97 100.91,-115.37 73.68,-157.61 -10.46,-16.23 14.08,-33.49 24.58,-17.2"
             style="fill:#231f20;fill-opacity:1;fill-rule:nonzero;stroke:none"
             id="path64" /><path
             d="m 2823.39,3772.5 c -6.23,-110.18 -156.99,-169.81 -243.18,-202.74 -139.35,-53.24 -294.78,-79.48 -443.79,-73.74 -19.29,0.74 -22.16,-29.13 -2.84,-29.88 160.2,-6.16 322.52,24.18 472,81.29 94.04,35.94 241.02,104.46 247.69,222.23 1.09,19.31 -28.79,22.15 -29.88,2.84"
             style="fill:#231f20;fill-opacity:1;fill-rule:nonzero;stroke:none"
             id="path66" /><path
             d="m 2359.78,3263.68 c -17.27,105.42 -131.96,179.02 -230.03,192.34 4.45,-4.11 8.9,-8.23 13.36,-12.34 -3.82,60.33 -31.68,112.45 -64.81,161.78 -15.59,23.2 -33.15,45.08 -50.38,67.06 -11.81,15.07 -32.41,34.69 -34.81,54.5 -9.85,-1.74 -19.7,-3.47 -29.55,-5.21 8.34,-52.97 14.26,-106.41 16.67,-160 9.44,3.02 18.88,6.03 28.32,9.05 -44.55,97.11 -141.14,167.6 -248.8,168.49 -11.56,0.1 -23.45,-14.63 -12.86,-24.64 40.79,-38.53 65.35,-94.7 84.56,-146.74 8.33,5.39 16.66,10.77 24.99,16.15 -55.27,68.85 -156.88,78.81 -237.38,65.07 -13.96,-2.39 -17.47,-24.84 -2.6,-28.84 55.42,-14.94 136.06,-63.45 116.66,-132.35 -2.49,-8.8 -43.77,-12.51 -56.44,-15.25 -57.85,-12.5 -113.96,-31.93 -161.95,-67.35 -54.13,-39.94 -81.82,-101.83 -89.53,-167.2 -2.13,-18.03 -2.06,-36.8 -0.78,-54.88 2.15,-30.44 -17.75,-51.36 -32.89,-76.01 -16.94,-27.57 -21.48,-53.62 -17.97,-85.5 2.12,-19.25 31.65,-13.92 29.55,5.21 -5.36,48.6 25.87,83.25 50.84,122.13 9.59,14.92 -0.3,45.02 -0.29,61.68 0.01,25.35 4.26,50.5 11.5,74.73 21.89,73.35 86.04,116.37 154.59,140.77 26.53,9.45 54.32,15.39 81.87,21.02 14.66,3.01 46.81,3.02 54.11,18.52 41.28,87.65 -52.6,162.06 -128.86,182.61 -0.86,-9.61 -1.73,-19.22 -2.6,-28.84 69.99,11.95 160.74,5.54 209.29,-54.93 11.26,-14.03 30.61,0.93 24.99,16.15 -20,54.16 -46.24,113.07 -88.77,153.26 -4.29,-8.22 -8.57,-16.43 -12.86,-24.64 97.64,-0.81 184.08,-63.34 224.53,-151.51 7.63,-16.63 29.03,-6.77 28.32,9.05 -2.41,53.59 -8.32,107.03 -16.66,160 -3.03,19.22 -31.86,13.86 -29.55,-5.21 4.26,-35.11 41.98,-69.15 62.36,-95.47 42.86,-55.36 83.09,-116.09 87.63,-187.86 0.43,-6.76 7.28,-11.51 13.36,-12.34 84.8,-11.52 188.28,-75.79 203.31,-167.66 3.14,-19.11 32.68,-13.87 29.56,5.2"
             style="fill:#231f20;fill-opacity:1;fill-rule:nonzero;stroke:none"
             id="path68" /><path
             d="m 1231.45,3767.97 c 100.57,-171.49 332.79,-251.57 515.47,-281.83 19.13,-3.17 21.78,26.74 2.83,29.88 -171.28,28.37 -397.59,105.21 -491.2,264.84 -9.69,16.53 -36.91,3.84 -27.1,-12.89"
             style="fill:#231f20;fill-opacity:1;fill-rule:nonzero;stroke:none"
             id="path70" /><path
             d="m 1553.08,3426.02 c -200.72,22.37 -429.9,91.38 -529.73,283.92 -35.983,69.39 -59.147,175.58 -15.64,245.04 22.23,35.49 61.27,61.68 90.33,91.33 36.41,37.15 73.52,73.6 109.93,110.74 59.88,61.08 143.88,135.56 164.43,222.16 18.04,75.98 -65.41,156.51 -100.06,215.7 -20.77,35.49 -31.3,75.61 16.83,89.3 39.75,11.3 85.31,1.95 122.83,-12.49 41.39,-15.94 77.17,-49.26 78.06,-95.89 1.16,-60.82 -27.63,-116.94 -14.31,-178.64 1.65,-5.38 3.55,-10.67 5.7,-15.88 6.73,-18.12 33.79,-5.14 27.1,12.88 -33.35,89.8 56.13,194.93 -28.86,270.29 -51.18,45.38 -129.13,63.97 -195.73,49.27 -65.21,-14.4 -69.56,-70.52 -43.58,-122.8 39.09,-78.7 137.58,-153.77 85.21,-246.67 -53.11,-94.19 -142.42,-170.02 -218.06,-245.67 -50.04,-50.05 -129.643,-102.5 -145.8,-175.73 -32.914,-149.15 55.27,-295.56 169.74,-382.96 119,-90.85 272.78,-127.5 418.78,-143.78 19.27,-2.14 22.02,27.74 2.83,29.88"
             style="fill:#231f20;fill-opacity:1;fill-rule:nonzero;stroke:none"
             id="path72" /><path
             d="m 1464.71,4336.31 c 73.44,50.36 166.98,118.66 260.72,117.48 50.9,-0.63 76.06,-47.54 87.75,-91.11 4.43,-16.52 4.69,-42.36 -11.22,-53.49 -15.84,-11.08 3.67,-33.9 19.41,-22.88 60.4,42.27 3.84,151.81 -40.87,181.9 -36.61,24.65 -88.95,16.66 -127.95,3.75 -75.19,-24.89 -142.35,-68.27 -207.26,-112.77 -15.93,-10.93 3.59,-33.73 19.42,-22.88"
             style="fill:#231f20;fill-opacity:1;fill-rule:nonzero;stroke:none"
             id="path74" /><path
             d="m 1714.27,4266.31 c 49.55,5.22 129.81,26.13 148.22,-37.55 9.13,-31.59 7.83,-69.56 3.87,-101.94 -2.82,-22.97 -16.88,-29.39 -37.3,-34.3 -18.72,-4.5 -13.62,-34.07 5.21,-29.54 25.17,6.04 44.74,14.34 56.31,38.69 17.03,35.88 9.26,95.41 1.45,132.3 -18.44,87.11 -117.41,68.79 -182.97,61.88 -19.26,-2.03 -13.92,-31.56 5.21,-29.54"
             style="fill:#231f20;fill-opacity:1;fill-rule:nonzero;stroke:none"
             id="path76" /><path
             d="m 1756.46,4087.01 c 31.54,-11.23 64.59,-24.14 81.66,-54.87 15.69,-28.26 4.35,-70.14 -4.42,-98.43 -11.7,-37.71 -51.22,-50.12 -85.64,-55.95 -43,-7.28 -89.52,-8.61 -94.95,49.26 -1.81,19.27 -31.34,13.91 -29.55,-5.21 10.16,-108.08 157.17,-92.56 216.3,-34.18 32.42,32 40.46,94.44 32.34,137.34 -9.58,50.54 -62.1,74.79 -105.33,90.18 -18.25,6.5 -28.63,-21.65 -10.41,-28.14"
             style="fill:#231f20;fill-opacity:1;fill-rule:nonzero;stroke:none"
             id="path78" /><path
             d="m 1759.78,3937.46 c -33.47,49.03 -140.62,18.28 -184.92,9.51 -78.63,-15.58 -159.58,-36.73 -234.19,-66.8 -141.23,-56.93 -155.53,-194.69 -133.62,-330.12 3.09,-19.11 32.63,-13.88 29.54,5.2 -20.22,125.04 -10.44,243.23 116.96,297.81 56.01,24 117.72,38.37 176.58,53.07 38.79,9.7 177.64,54.59 206.76,11.91 10.9,-15.95 33.7,3.57 22.89,19.42"
             style="fill:#231f20;fill-opacity:1;fill-rule:nonzero;stroke:none"
             id="path80" /><path
             d="m 1720.06,3249.17 c -0.6,-78.36 -47.85,-120.41 -116.18,-151.48 -162.75,-73.98 -356.81,-92.91 -531.48,-118.5 -19.17,-2.81 -13.9,-32.34 5.2,-29.55 183.47,26.88 389.11,46.62 558.03,129.88 69.42,34.22 113.7,87.85 114.31,166.81 0.14,19.23 -29.73,22.16 -29.88,2.84"
             style="fill:#231f20;fill-opacity:1;fill-rule:nonzero;stroke:none"
             id="path82" /><path
             d="m 1129.78,2607.46 c -39.16,51.52 -78.71,102.78 -115.92,155.75 -28.294,40.28 -60.215,85.87 -68.317,135.57 -4.918,30.14 16.469,46.99 40.562,60.52 40.315,22.65 84.235,-10.11 114.745,-33.09 28.8,-21.68 53.81,-48.17 84.04,-67.96 64.56,-42.28 139.63,-15.51 201.81,17.42 62.4,33.04 171.94,119.16 247.62,76.22 81.47,-46.22 -54.58,-235.08 -75.66,-282.24 -20.13,-45.04 -29.16,-93.87 -27.51,-143.01 1.04,-30.7 9.2,-59.94 -2.44,-89.61 -13.21,-33.68 -57.48,-47.01 -88.57,-55.36 -52.51,-14.11 -112.62,-21.42 -167.03,-21.84 -58.69,-0.46 -110.13,24.32 -128.34,83.06 -14.64,47.2 -11.35,104.47 -11.5,153.44 -0.06,19.2 -29.93,22.15 -29.87,2.84 0.25,-83.25 -7.79,-189.02 67.93,-242.86 71.77,-51.02 196.81,-22.3 274.02,-4.19 58.1,13.63 112.31,43.91 119.5,107.84 4.19,37.24 -5.93,74.69 -2.34,112.39 6.92,72.5 49.62,130.11 81.36,192.98 28.84,57.1 71.27,154.78 12.65,207.56 -48.31,43.48 -139.52,5.29 -187.86,-16.75 -86.77,-39.58 -183.01,-133.17 -278.92,-64.87 -69.93,49.78 -136.88,139.88 -230.377,87.35 -52.629,-29.58 -49.289,-83.41 -29.133,-132.63 38.715,-94.54 115.65,-177.66 176.66,-257.95 11.71,-15.4 34.57,4.05 22.89,19.42"
             style="fill:#231f20;fill-opacity:1;fill-rule:nonzero;stroke:none"
             id="path84" /><path
             d="m 1030.22,2828.04 c 65.39,-72.21 67.89,-160.47 73.34,-252.9 1.14,-19.28 30.67,-13.86 29.55,5.22 -5.82,98.47 -10.82,190.69 -80,267.1 -12.95,14.29 -35.91,-5.03 -22.89,-19.42"
             style="fill:#231f20;fill-opacity:1;fill-rule:nonzero;stroke:none"
             id="path86" /><path
             d="m 1545.29,2889.2 c -73.86,-56.22 -134.51,-145.18 -135.23,-240.03 -0.14,-19.23 29.73,-22.16 29.88,-2.84 0.66,87.66 56.56,168.09 124.77,219.97 15.4,11.72 -4.05,34.58 -19.42,22.9"
             style="fill:#231f20;fill-opacity:1;fill-rule:nonzero;stroke:none"
             id="path88" /><path
             d="m 1446.87,3291.82 c -54.07,18.27 -111.05,-4.28 -162.48,-21.54 -99.44,-33.37 -195.71,-58.82 -301.308,-40.93 -12.277,2.08 -22.531,-15.75 -12.855,-24.64 114.353,-105.17 271.863,-198.37 431.213,-147.17 18.35,5.89 5.29,32.93 -12.88,27.09 -144.44,-46.4 -292.61,44.92 -395.455,139.49 -4.289,-8.22 -8.57,-16.43 -12.855,-24.64 86.53,-14.66 169.61,-2.64 252.94,22.62 60.23,18.26 139.34,63.18 203.27,41.58 18.33,-6.19 28.74,21.95 10.41,28.14"
             style="fill:#231f20;fill-opacity:1;fill-rule:nonzero;stroke:none"
             id="path90" /><path
             d="m 2324.28,3239.64 c 109.74,23.32 229.11,-22.72 334.19,-49.99 92.99,-24.13 199.07,-53.45 292.97,-18.78 -5.39,8.33 -10.77,16.66 -16.15,24.99 -93.56,-79.29 -194.07,-159.45 -313.02,-196.05 -132.78,-40.86 -248.29,18.28 -335.82,117.65 -13.11,14.87 -33.34,-3.67 -22.9,-19.42 49.19,-74.03 97.45,-155.34 116.97,-243.04 12.33,-55.47 -31.17,-64.74 -76.14,-80.44 -50.08,-17.47 -102.37,-29.27 -154.15,-40.46 -36.45,-7.88 -57.21,-7.5 -84.29,-33.56 -110.8,-106.59 -224.85,-211.18 -323.01,-329.88 -42.25,-51.09 -135.44,-160.55 -76.04,-229.29 4.29,8.22 8.57,16.43 12.86,24.65 -31.6,4.65 -62.89,11.3 -92.88,22.47 -11.67,4.35 -25.46,-8.73 -18.75,-20.51 13.77,-24.19 27.3,-48.55 40,-73.34 4.98,7.12 9.97,14.25 14.96,21.38 -38.24,3.34 -77.11,28.11 -109.48,47.35 -9.99,5.94 -27.3,-1.14 -23.37,-14.9 8.47,-29.68 17.71,-59.32 31.22,-87.16 7.38,6.24 14.77,12.48 22.15,18.73 -68.38,44.87 -138.69,86.78 -206.61,132.33 -18.85,12.64 -38.45,25.83 -53.24,43.23 -17.37,20.42 26.95,63.94 40.96,77.37 13.87,13.32 -5.41,36.32 -19.42,22.9 -34.82,-33.42 -78.21,-85.28 -36.5,-128.39 25.86,-26.72 60.33,-46.19 91.35,-66.07 55.34,-35.45 111.3,-69.88 166.26,-105.95 12.32,-8.08 28.87,4.87 22.15,18.73 -12.33,25.43 -21.04,52.38 -28.78,79.5 -7.79,-4.97 -15.58,-9.93 -23.37,-14.9 37.14,-22.08 80.05,-48.82 123.85,-52.65 11.1,-0.97 20.26,11.05 14.96,21.38 -12.69,24.79 -26.21,49.14 -40,73.34 -6.25,-6.84 -12.5,-13.68 -18.75,-20.51 32.37,-12.05 66.38,-19.19 100.46,-24.21 13.23,-1.94 21.18,15.02 12.86,24.65 -31.58,36.53 7.99,94.82 28.59,126.76 41.36,64.12 95.14,120.67 147.75,175.48 54.59,56.88 111.59,111.46 168.49,166 13.61,13.05 27.23,26.07 40.83,39.12 3.86,3.7 20.09,24.44 23.8,25.13 13.78,2.52 27.52,5.29 41.24,8.12 48.82,10.04 97.33,21.7 145.12,35.91 38.7,11.51 83.97,23.87 114.51,51.79 27.34,25.01 10,74.89 1.29,104.18 -23.94,80.51 -68.82,154.72 -114.95,224.18 -7.64,-6.48 -15.26,-12.94 -22.9,-19.42 85.5,-97.03 192.39,-157.35 324.22,-137.03 139.65,21.53 262.81,123.74 366.94,211.96 13.63,11.56 -0.75,30.68 -16.15,24.99 -100.93,-37.25 -224.51,7.77 -322.92,33.82 -94.25,24.95 -198.53,58.24 -296.58,37.41 -18.87,-4.01 -13.73,-33.57 5.22,-29.55"
             style="fill:#231f20;fill-opacity:1;fill-rule:nonzero;stroke:none"
             id="path92" /><path
             d="m 1561.44,2444.2 c 155.18,74.01 299.45,192.02 399.18,331.62 -8.19,5.73 -16.38,11.47 -24.57,17.2 -97.13,-152.19 -192.76,-322.34 -326.87,-445.93 -40.81,-37.63 -80.44,-57.27 -135.86,-59.14 -30.08,-1.03 -60.4,0.72 -90.08,5.67 -2.24,0.37 -35.93,6.81 -31.5,13.99 10.13,16.43 36.61,25.36 53.04,33.26 17.4,8.36 4.59,35.49 -12.89,27.1 -39.6,-19.04 -113.32,-70.47 -36.89,-98.08 54.74,-19.78 140,-21.08 194.38,0.63 68.78,27.46 121.89,93.76 167.08,149.46 90.5,111.56 167.01,234.94 244.16,355.84 10.38,16.26 -13.28,33.01 -24.57,17.2 -96.67,-135.32 -237.03,-249.96 -387.49,-321.72 -17.44,-8.32 -4.61,-35.44 12.88,-27.1"
             style="fill:#231f20;fill-opacity:1;fill-rule:nonzero;stroke:none"
             id="path94" /><path
             d="m 1880.25,2789.48 c 43.99,-2.78 86.16,-26.97 119.48,-54.02 15.05,-12.21 32.15,12.45 17.21,24.58 -37.13,30.12 -85,56.22 -133.86,59.32 -19.3,1.22 -22.13,-28.65 -2.83,-29.88"
             style="fill:#231f20;fill-opacity:1;fill-rule:nonzero;stroke:none"
             id="path96" /><path
             d="m 2284.78,2744.64 c 70.83,-137.32 166.99,-231.8 317.79,-274.34 181.52,-51.19 375.98,-48.4 562.72,-41.6 34.88,1.27 68.38,3.55 96.09,-20.02 40.58,-34.54 70.87,-83.02 94.68,-129.96 97.47,-192.12 50.75,-410.31 -53.35,-589.04 -9.66,-16.6 14.83,-33.94 24.58,-17.2 99.19,170.33 146.32,364.13 82.53,555.39 -19.63,58.88 -51.1,114.25 -90.03,162.5 -20.32,25.19 -45.79,54.81 -78.21,63.84 -48.22,13.44 -106.19,2.75 -155.24,1.1 -115.36,-3.88 -230.89,2.91 -345.27,18.17 -91.74,12.24 -184.9,33 -264.09,82.88 -75.4,47.5 -125.06,123.53 -165.1,201.16 -8.83,17.13 -35.99,4.36 -27.1,-12.88"
             style="fill:#231f20;fill-opacity:1;fill-rule:nonzero;stroke:none"
             id="path98" /><path
             d="m 2016.89,2621.37 c 59.14,-71.1 96.68,-163.64 127.89,-250.06 1.28,5.96 2.56,11.92 3.84,17.89 -88.34,-90.85 -171.18,-211.57 -185.22,-340.03 -1.14,-10.48 11.41,-21.12 21.38,-14.97 25,15.43 50.43,30.05 76.66,43.33 -6.84,6.26 -13.67,12.51 -20.51,18.76 -25.85,-67.66 -43.91,-138.81 -54.2,-210.45 -1.53,-10.66 11.62,-20.85 21.38,-14.97 26.33,15.89 50.48,34.79 73.26,55.43 -7.92,5.56 -15.85,11.11 -23.77,16.66 -26.85,-69.79 -38.09,-146.85 -30.71,-221.15 1.07,-10.74 16.78,-16.84 24.48,-8.84 26.04,27.09 49.7,56.39 72.59,86.18 -8.78,4.6 -17.57,9.21 -26.36,13.81 -41.03,-100.25 43.68,-208.88 112.13,-270.83 10.11,-9.15 25.54,3.13 23.38,14.9 -5.23,28.3 -5.34,57.96 -6.66,86.66 -8.74,-4.1 -17.49,-8.22 -26.23,-12.32 38.89,-43.33 77.78,-86.66 116.66,-130 10.14,-11.29 28.21,-2.49 26.23,12.32 -11.31,84.09 17.9,148.53 43.89,225.85 30.91,91.97 16.71,186.42 -10.55,277.49 -7.8,-4.97 -15.59,-9.93 -23.38,-14.9 45.09,-33.2 91.45,-66.01 133.33,-103.34 7.98,-7.11 23.85,0.1 23.54,10.87 -2.45,84.24 -24.14,174.05 -76.82,241.13 -5.56,-7.93 -11.11,-15.85 -16.66,-23.78 27.3,-13.1 59.22,-29.81 90.45,-30.87 10.54,-0.35 16.81,7.51 16.2,17.55 -6.26,101.53 -53.13,204.85 -98.78,293.49 -35.5,68.93 -82.2,128.48 -138.6,181.42 -36.99,34.72 -87.08,68.82 -89.12,124.4 -0.71,19.09 -30.58,22.09 -29.88,2.84 1.6,-43.38 20.71,-74.4 50.81,-104.65 54.52,-54.82 109.81,-102.39 152.21,-168.36 60.85,-94.69 116.74,-219.85 123.8,-334.36 5.41,5.85 10.8,11.7 16.2,17.55 -28.5,0.96 -57.91,17.15 -82.87,29.13 -14.41,6.92 -25.25,-12.83 -16.66,-23.78 47.25,-60.14 67.64,-143.07 69.84,-218.87 7.85,3.62 15.7,7.24 23.54,10.87 -41.87,37.33 -88.23,70.13 -133.33,103.34 -9.76,7.18 -27.23,-2.01 -23.38,-14.9 30.17,-100.74 38.38,-193.77 0.82,-292.92 -26.78,-70.7 -44.44,-133.91 -34.16,-210.42 8.74,4.1 17.49,8.22 26.23,12.32 -38.89,43.33 -77.78,86.66 -116.66,130 -10.79,12.01 -26.89,1.95 -26.23,-12.32 1.34,-28.69 1.45,-58.36 6.66,-86.66 7.8,4.97 15.59,9.93 23.38,14.9 -58.36,52.82 -136.59,149.35 -101.19,235.83 6.68,16.32 -16.27,26.95 -26.36,13.81 -21.3,-27.73 -43.17,-55.26 -67.42,-80.48 8.16,-2.95 16.32,-5.9 24.48,-8.84 -6.86,68.98 4.39,140.79 29.29,205.51 5.33,13.85 -12.54,26.83 -23.77,16.66 -20.78,-18.84 -42.68,-36.71 -66.74,-51.23 7.13,-4.99 14.26,-9.98 21.38,-14.97 9.93,69.12 27.53,137.59 52.47,202.87 4.64,12.13 -8.72,24.73 -20.51,18.76 -26.22,-13.28 -51.66,-27.9 -76.67,-43.33 7.13,-4.99 14.26,-9.98 21.38,-14.97 13.13,120.08 91.98,234.85 174.77,319.97 5.1,5.27 6.34,10.97 3.84,17.89 -32.14,89.03 -71.14,183.28 -132.1,256.6 -12.37,14.86 -35.27,-4.51 -22.89,-19.42"
             style="fill:#231f20;fill-opacity:1;fill-rule:nonzero;stroke:none"
             id="path100" /><path
             d="m 3162.71,2046.35 c -38.77,-70.94 -77.45,-142.27 -107.08,-217.62 -20.13,-51.16 -35.75,-108.73 -23.18,-163.56 10.18,-44.38 47.18,-73.98 85.74,-93.91 38.9,-20.1 89.84,-26.43 86.34,-79.8 -4.82,-73.58 -45.66,-152.99 -74.77,-219.88 -8.82,-20.27 -18.27,-40.35 -28.75,-59.81 -9.4,-17.42 15.12,-2.31 2.07,-2.27 -88.97,0.29 -148.87,-60.8 -159.69,-147 -0.85,-6.83 3.63,-12.98 9.74,-15.49 62.88,-25.81 139.79,-25.02 202.83,-0.59 60.95,23.62 80.6,91.35 46.1,145.89 -10.68,16.89 -1.21,8.17 8.66,29.82 12.52,27.44 25.21,54.79 37.93,82.13 25.92,55.75 52.28,111.28 78.8,166.73 25.82,53.99 51.86,107.87 78.29,161.55 4.21,8.55 -3.62,19.73 -12.65,20.15 -51.56,2.36 -84.84,28.96 -93.31,81 -3.12,19.1 -32.66,13.86 -29.56,-5.22 10.51,-64.46 54.95,-102.67 120.03,-105.66 -4.21,6.72 -8.43,13.44 -12.65,20.15 -72.24,-146.68 -142.39,-294.47 -210,-443.34 -2.09,-4.6 -0.79,-11.25 2.63,-14.91 49.68,-53.11 0.21,-105.8 -54.18,-119.82 -48.48,-12.49 -106.26,-8.73 -152.51,10.26 3.24,-5.16 6.48,-10.32 9.73,-15.49 8.87,70.77 59.54,124.35 133.64,119.82 5.1,-0.3 10.93,1.74 13.71,6.34 32.04,53.21 54.13,113.32 75.73,171.21 18.16,48.7 71.18,156.08 15.17,200.51 -56.11,44.51 -139.8,45.23 -153.03,131.25 -7.37,47.8 13.45,99.5 30.56,142.97 26.88,68.31 63.11,133.11 98.24,197.39 9.17,16.79 -15.3,34.18 -24.58,17.2"
             style="fill:#231f20;fill-opacity:1;fill-rule:nonzero;stroke:none"
             id="path102" /><path
             d="m 3323.13,2337.01 c 87.5,-34.28 174.62,-103.56 203.76,-195.21 5.4,5.85 10.8,11.7 16.2,17.55 -22.39,0.69 -44.56,3.11 -66.67,6.67 -12.94,2.08 -21.57,-15.26 -12.87,-24.65 45.87,-49.4 64.98,-120.92 70,-186.23 7.8,4.97 15.59,9.93 23.38,14.9 -24.94,17.07 -49.14,35.21 -73.33,53.33 -10.6,7.94 -25.6,-2.31 -23.38,-14.9 9.92,-55.87 10.74,-113.15 3.17,-169.3 7.85,3.62 15.69,7.24 23.54,10.87 -26.05,16.65 -43.6,47.68 -58.38,74.15 -9.37,16.77 -36.56,4.06 -27.1,-12.88 17.37,-31.1 37.68,-66.3 68.28,-85.85 9.68,-6.19 22,-0.55 23.54,10.87 7.88,58.56 6.84,119.08 -3.49,177.36 -7.8,-4.97 -15.59,-9.93 -23.38,-14.9 24.19,-18.11 48.39,-36.25 73.33,-53.33 11.56,-7.92 24.34,2.28 23.38,14.9 -5.41,70.15 -27.48,147.44 -76.66,200.43 -4.29,-8.22 -8.58,-16.43 -12.87,-24.65 22.11,-3.56 44.29,-5.98 66.67,-6.67 8.62,-0.26 19.34,7.64 16.2,17.55 -32.66,102.68 -124.34,179.51 -222.91,218.13 -18.07,7.07 -28.39,-21.09 -10.41,-28.14"
             style="fill:#231f20;fill-opacity:1;fill-rule:nonzero;stroke:none"
             id="path104" /><path
             d="m 2532.71,1833.01 c -51.66,-83.49 -77.21,-157.73 -71.58,-256.19 1.57,-27.33 4.24,-54.62 6.51,-81.9 3.31,-39.9 0.86,-35.69 32.36,-56.15 51.77,-33.65 36.95,-89.3 -14.77,-110.81 -6.43,-2.67 -9.01,-9.71 -8.34,-16.16 9.36,-88.45 16.03,-177.18 21.82,-265.94 1.21,-18.48 -0.71,-27.36 14.71,-39.08 22.24,-16.882 40.91,-42.639 40.14,-71.491 -2.16,-81.797 -149.51,-92.359 -204.5,-96.098 -86.36,-5.89 -37.83,77.821 -4.67,111.039 16.3,16.329 35.31,32.52 53.73,46.77 86.25,66.75 61.34,192.26 50.63,287.61 -3.58,31.93 -14.31,29.34 -38.31,45.96 -44.01,30.47 7,83.96 18.63,115.3 3.96,10.68 -4.54,27.92 -6.77,38.47 -4.45,21.06 -7.65,42.4 -11.53,63.57 -8.49,46.41 -20.27,92.63 -45.55,132.94 -10.13,16.17 -37.39,3.52 -27.1,-12.88 28.91,-46.1 38.58,-99.15 47.92,-151.97 3.37,-19.13 17.88,-54.45 6.66,-71.88 -11.22,-17.41 -21.55,-37.63 -25.93,-57.91 -6.04,-27.96 -2.35,-53.36 18.77,-73.72 8.23,-7.94 18.17,-13.46 28.2,-18.76 13.32,-7.05 10.81,-66.19 12.06,-81.51 4.46,-54.54 15.1,-138.36 -31.24,-179.74 -46.71,-41.718 -103.76,-76.898 -123.47,-139.96 -25.17,-80.598 63.95,-85.141 117.25,-80.129 68.07,6.39 160.65,27.109 190.2,97.621 9.24,22.058 4.94,46.937 -3.89,68.199 -6.49,15.621 -44.98,50.579 -45.05,51.669 -5.86,95.83 -13.07,191.65 -23.15,287.14 -2.79,-5.39 -5.56,-10.77 -8.34,-16.16 78.84,32.79 79.4,112.27 19.1,162.48 -25.32,21.07 -20.95,47.85 -23.68,80.63 -2.73,32.72 -5.04,65.39 -3.56,98.22 2.89,64.11 34.33,120.29 67.32,173.62 10.14,16.39 -14.38,33.69 -24.58,17.2"
             style="fill:#231f20;fill-opacity:1;fill-rule:nonzero;stroke:none"
             id="path106" /><path
             d="m 2476.46,1603.68 c 193.02,-85.79 384.1,-17.53 564.98,67.18 17.51,8.2 4.66,35.32 -12.88,27.1 -173.77,-81.38 -355.99,-148.68 -541.68,-66.14 -17.74,7.88 -27.99,-20.33 -10.42,-28.14"
             style="fill:#231f20;fill-opacity:1;fill-rule:nonzero;stroke:none"
             id="path108" /><path
             d="m 2963.58,1629.47 c 62.04,-10.2 -5.71,-126.47 -18.8,-152.53 -32.98,-65.63 -67.91,-130.32 -103.79,-194.4 -4.03,-7.18 14.7,4.78 3.68,2.41 -5.84,-1.25 -11.56,-2.98 -17.27,-4.72 -21.6,-6.58 -41.72,-16.1 -60.89,-27.99 -47.66,-29.55 -75.83,-75.42 -86.45,-129.74 -1.55,-7.97 5.98,-15.74 13.52,-16.36 83.51,-6.89 278.69,-19.14 269.65,111.76 -0.76,10.95 -4.95,21.72 -8.45,32.01 -8.2,24.11 8.37,43.97 19.32,65.58 21.3,42.06 42.87,83.99 64.52,125.87 24.93,48.25 50.01,96.41 75.34,144.45 8.9,16.88 -15.56,34.3 -24.58,17.2 -50.97,-96.72 -101.25,-193.81 -150.64,-291.35 -12.13,-23.96 -27.7,-39.3 -15.36,-64.38 14.21,-28.84 15.65,-60.24 -9.35,-82.74 -51.54,-46.38 -155.68,-33.63 -217.61,-28.52 4.5,-5.46 9.01,-10.91 13.52,-16.36 13.85,70.8 68.76,117.57 136.71,134.98 36.1,9.26 55.59,77.2 71.34,106.55 26.61,49.58 179.7,276.58 48.43,298.16 -19.14,3.15 -21.79,-26.76 -2.84,-29.88"
             style="fill:#231f20;fill-opacity:1;fill-rule:nonzero;stroke:none"
             id="path110" /><path
             d="m 2276.25,1550.34 c -2,-16.41 -4,-32.8 -6.01,-49.21 -0.86,-7.13 3.73,-12.6 9.74,-15.49 19.74,-9.5 34.67,-27.81 28.43,-50.86 -5.36,-19.77 -28.07,-26.33 -34.62,-43.98 -7.35,-19.83 -0.7,-55.75 -1.27,-77.26 -1.32,-49.41 -1.46,-97.55 9.14,-146.06 6.08,-27.86 24.55,-51.21 24.94,-80.11 0.93,-68.59 -67.78,-103.37 -126.54,-109.8 -35.89,-3.922 -130.22,2.02 -92.29,57.11 18.5,26.89 50.89,46.73 77.84,63.99 31.37,20.1 67.14,29.76 74.99,70.17 11.22,57.91 1.87,120.75 -7.29,178.32 -3.33,20.9 -3.45,33.67 -22.38,44.71 -14.76,8.6 -38.37,10.63 -37.37,31.53 1.86,38.43 38.55,65.05 28.32,103.45 -8.69,32.66 -17.31,65.32 -25.91,98.01 -4.9,18.56 -34.48,13.51 -29.55,-5.22 11.69,-44.36 35.75,-93.61 15.29,-137.31 -9.8,-20.93 -26.97,-57.45 -15.07,-81.35 8.28,-16.61 23.3,-23.08 39.56,-30.18 25.22,-11.01 21.44,-53.23 24.42,-78.53 4.71,-40.11 9.6,-84.62 -1.02,-124.19 -5.97,-22.26 -50.67,-37.98 -68.53,-49.79 -38.49,-25.48 -118.44,-77.23 -86.64,-133.669 33.6,-59.609 147.65,-40.992 198.4,-19.301 49.49,21.149 87.97,75.24 83.39,130.13 -3.25,38.87 -25.46,73.11 -31.54,112.13 -5.29,33.86 -3.21,69 -2.29,103.13 0.92,34.33 -3.04,62.55 20.49,89.51 36.08,41.32 11.12,92.58 -32.49,113.57 3.24,-5.17 6.49,-10.33 9.74,-15.49 2,16.4 4,32.8 6,49.21 2.35,19.25 -27.54,21.98 -29.88,2.83"
             style="fill:#231f20;fill-opacity:1;fill-rule:nonzero;stroke:none"
             id="path112" /><path
             d="m 2693.09,3119.35 c -46.63,-0.86 -84.56,37.98 -124.77,57.11 -68.23,32.49 -146.41,20.21 -215.93,-0.61 -12.6,-3.77 -16.82,-18.31 -5.99,-27.06 34.49,-27.88 68.25,-55.05 109.23,-72.84 49.55,-21.5 105.95,-20.46 158.65,-16.31 19.28,1.52 13.89,31.05 -5.22,29.55 -53.01,-4.17 -103.64,-2.18 -152.91,19.19 -34.42,14.94 -63.69,41.66 -92.55,64.99 -2,-9.02 -3.99,-18.04 -5.99,-27.06 77.1,23.09 152.87,30.89 224.53,-10.84 34.62,-20.17 65.92,-46.77 108.11,-45.99 19.15,0.35 22.13,30.23 2.84,29.87"
             style="fill:#231f20;fill-opacity:1;fill-rule:nonzero;stroke:none"
             id="path114" /><path
             d="m 1166.92,3132.81 c 33.25,-1.92 62.73,11.61 92.26,25.41 56.34,26.32 110.63,50.16 173.95,33.79 18.58,-4.81 29.12,23.3 10.41,28.14 -45.21,11.69 -85.79,8.31 -130.03,-5.79 -46.36,-14.77 -93.48,-54.57 -143.76,-51.67 -19.3,1.11 -22.14,-28.76 -2.83,-29.88"
             style="fill:#231f20;fill-opacity:1;fill-rule:nonzero;stroke:none"
             id="path116" /><path
             d="m 1288.58,3104.48 c 53.68,-3.79 123.13,1.29 162.79,41.83 13.4,13.7 -5.85,36.74 -19.41,22.88 -33.98,-34.74 -94.53,-38.09 -140.54,-34.84 -19.31,1.36 -22.12,-28.51 -2.84,-29.87"
             style="fill:#231f20;fill-opacity:1;fill-rule:nonzero;stroke:none"
             id="path118" /><path
             d="m 2076.73,3183.34 c -2.35,-53.3 -26.93,-105.51 -83.45,-116.71 -60.16,-11.93 -94.8,55.75 -101.21,103.64 -7.44,55.59 26.79,115.8 82.99,126.94 66.64,13.21 99.56,-66.35 101.84,-117.89 0.85,-19.29 30.39,-13.84 29.55,5.2 -3.14,70.73 -45.21,138.21 -120.86,143.17 -77.61,5.08 -120.95,-78.62 -123.86,-144.35 -3.18,-71.89 47.29,-142.36 121.02,-147.19 77.61,-5.09 120.95,78.61 123.86,144.35 0.85,19.3 -29.02,22.16 -29.88,2.84"
             style="fill:#231f20;fill-opacity:1;fill-rule:nonzero;stroke:none"
             id="path120" /><path
             d="m 2038.33,3186.08 c 0,-32.21 -20.89,-58.33 -46.66,-58.33 -25.78,0 -46.67,26.12 -46.67,58.33 0,32.22 20.89,58.34 46.67,58.34 25.77,0 46.66,-26.12 46.66,-58.34"
             style="fill:#231f20;fill-opacity:1;fill-rule:nonzero;stroke:none"
             id="path122" /><path
             d="m 6042,4300.23 c -122.75,2.38 -232.52,51.16 -238.03,186.43 -2.3,56.54 10.56,116.9 32.71,168.98 4.08,9.61 -5.77,23.4 -16.68,19.97 -61.28,-19.26 -122.56,-38.51 -183.84,-57.78 -6.47,-2.03 -11.66,-6.06 -12.33,-13.35 -8.5,-92.59 -22.27,-200.24 2.53,-291.05 13.34,-48.87 58.97,-82.07 100.97,-105.1 30.28,-16.61 63.07,-27.9 96.06,-37.69 35.53,-10.55 94.14,-8.03 123.19,-28.27 41.7,-29.06 48.41,-107.74 52.13,-153.34 1.88,-23.05 2.06,-48.27 -3.85,-70.82 -4.11,-15.7 -94.16,18.62 -110.5,24.87 -56.84,21.75 -140.5,71.14 -149.4,139.96 -1.47,11.38 -16.14,16.02 -24.48,8.84 -33.11,-28.51 -58.12,-66.73 -78.83,-104.66 -7.85,-14.38 -37.69,-59.52 -27.45,-76.05 11.28,-18.19 24.12,-34.93 38.22,-51.03 92.97,-106.1 229.75,-166.57 367.86,-183.32 19.26,-2.34 21.99,27.55 2.84,29.87 -123.3,14.96 -238.6,65.5 -328.2,152.27 -12.89,12.48 -24.7,26.03 -35.93,40 -22.78,28.34 -1.57,54.93 14.36,84.1 16.98,31.11 39.5,62.66 66.54,85.94 -8.16,2.94 -16.32,5.89 -24.48,8.84 8.23,-63.66 72.83,-115.51 125.1,-142.72 35.57,-18.53 72.7,-31.65 111.41,-42.01 20.11,-5.38 53.91,-21.61 71.14,-3.62 26.9,28.1 16.92,90.27 13.36,124.52 -5.09,48.78 -18.17,114.15 -57.17,148.17 -25.19,21.98 -60.9,19.69 -92.43,25.97 -53.66,10.69 -106.93,28.97 -153.92,57.16 -76.54,45.93 -77.69,117.85 -77.3,198.71 0.24,52.55 3.3,105.3 8.11,157.63 -4.11,-4.46 -8.22,-8.91 -12.33,-13.36 61.28,19.26 122.56,38.52 183.83,57.78 -5.55,6.66 -11.12,13.32 -16.67,19.98 -26.54,-62.38 -38.97,-134.23 -32.91,-201.62 12.57,-139.55 138.24,-191.65 263.54,-194.08 19.25,-0.37 22.17,29.5 2.83,29.88"
             style="fill:#231f20;fill-opacity:1;fill-rule:nonzero;stroke:none"
             id="path124" /><path
             d="m 5989.71,4303.65 c -19.97,106.85 -21.91,220.41 0.16,326.89 -4.11,-4.46 -8.22,-8.9 -12.33,-13.36 69.96,21.91 139.4,45.5 208.67,69.51 -6.83,6.25 -13.67,12.5 -20.51,18.75 -126.7,-261.3 -80.62,-587.89 -3.33,-856.09 5.31,-18.39 34.91,-13.37 29.55,5.21 -76.06,263.88 -122.71,583.42 1.93,840.47 6.43,13.27 -9.62,22.53 -20.51,18.76 -66.73,-23.13 -133.61,-45.96 -201.02,-67.07 -7.07,-2.21 -10.81,-6.02 -12.33,-13.35 -22.52,-108.66 -20.22,-225.83 0.17,-334.93 3.55,-19.01 33.1,-13.82 29.55,5.21"
             style="fill:#231f20;fill-opacity:1;fill-rule:nonzero;stroke:none"
             id="path126" /><path
             d="m 6165.8,3803.96 c 106.87,165.45 159.37,377.38 145.18,572.65 -2.88,39.72 -10.39,78.91 -19.88,117.52 -5.52,22.57 90.68,56.32 106.22,62.49 51.46,20.44 107.04,33.28 162.13,38.84 17.68,1.78 -10.44,13.23 1.03,-2.64 12.21,-16.91 24.42,-33.81 36.63,-50.72 19.9,-27.56 39.8,-55.12 59.71,-82.68 4.28,8.22 8.57,16.43 12.86,24.64 -89.92,12.82 -224.63,-2.16 -231.71,-115.94 -2.97,-47.75 -18.07,-169.31 64.47,-157.85 60.89,8.46 118.75,49.29 167.65,84.58 -7.76,1.67 -15.51,3.34 -23.26,5 15.86,-42.28 22.65,-88.39 21.26,-133.35 -1.99,-63.57 -160.62,-43.94 -198.01,-39.61 -6.13,0.71 -13.88,-3.4 -15.49,-9.73 -19.41,-76.19 -47.18,-141.99 -48.13,-221.77 -0.23,-19.24 29.64,-22.16 29.88,-2.83 0.92,76.9 27.69,140.82 46.39,214.19 -5.16,-3.25 -10.32,-6.49 -15.48,-9.73 74.18,-8.6 165.91,-16.71 223.84,40.26 18.03,17.73 6.47,70.86 3.6,93.71 -3.49,27.66 -10.96,55.63 -20.75,81.75 -3.65,9.69 -16.03,10.22 -23.27,5 -31.98,-23.09 -65.87,-43.64 -101.28,-60.99 -28.15,-13.79 -73.31,-33.15 -81.7,15.06 -6,34.43 -4.89,84.51 3.63,118.41 18.6,73.96 136.54,72.37 195.53,63.97 14.05,-2 20.02,14.72 12.86,24.64 -19.92,27.56 -39.82,55.12 -59.72,82.68 -9.92,13.74 -32.7,62.49 -52.73,64.37 -31.5,2.96 -68.86,-8.83 -98.9,-15.92 -73.81,-17.44 -143.06,-48.53 -206.37,-90 -3.97,-2.61 -6.29,-9.54 -5.07,-14.04 61.54,-225.55 11.14,-488.4 -115.69,-684.76 -10.48,-16.22 14.05,-33.49 24.57,-17.2"
             style="fill:#231f20;fill-opacity:1;fill-rule:nonzero;stroke:none"
             id="path128" /><path
             d="m 6359.57,3871.16 c 40.48,0.82 80.85,5.51 120.71,12.37 31.46,5.41 62.14,14 92.1,24.88 24.84,9.03 46.72,29.76 73.99,28.94 48.06,-1.43 92.22,-47.63 112.59,-87.25 34.7,-67.45 -22.6,-111.04 -81.41,-130.43 -18.32,-6.04 -5.27,-33.09 12.87,-27.1 54.33,17.9 113.6,55.12 108.93,120.39 -3.96,55.04 -41.79,101.26 -86.27,130.88 -53.27,35.45 -89.17,20.65 -141.71,-3.48 -62.76,-28.84 -140.28,-37.92 -208.97,-39.33 -19.14,-0.39 -22.13,-30.27 -2.83,-29.87"
             style="fill:#231f20;fill-opacity:1;fill-rule:nonzero;stroke:none"
             id="path130" /><path
             d="m 6449.43,3089.62 c 46.86,69.26 91.7,141.11 127.12,216.96 16.99,36.38 32.21,78.29 21.34,118.49 -12.17,45 -61.65,75.51 -96.98,100.39 0.37,-7.91 0.73,-15.82 1.1,-23.73 50.76,38.32 118.11,54.2 180.59,51.65 14.07,-0.57 23.58,18.86 10.02,27.23 -89.66,55.32 -168.05,73.77 -273.83,57.63 3.02,-9.44 6.03,-18.88 9.04,-28.32 33.77,15.5 65.6,34.85 95.19,57.26 10.19,7.73 4.44,25.84 -8.29,26.38 -47.27,2.01 -94.54,3.72 -141.82,5.25 2.76,-8.79 5.53,-17.58 8.29,-26.38 45.34,31.42 83.35,74.53 106.79,124.42 6.07,12.92 -9.42,23.14 -20.51,18.76 -110.84,-43.79 -239.53,-51.26 -357.2,-35.38 -6.28,0.85 -13.67,-3.52 -15.49,-9.74 -10.13,-34.73 -86.46,-62.45 -123.08,-73.91 -83.4,-26.09 -171.98,-35.6 -258.77,-41.72 -161.32,-11.38 -323.98,-4.23 -485.08,7.18 -10.41,0.74 -21.2,-11.13 -14.97,-21.37 61.53,-101.26 147.08,-188.46 265.73,-216.37 141.74,-33.35 281.85,38.24 393.08,119.45 -6.48,7.62 -12.94,15.25 -19.41,22.88 -86.22,-81.75 -156.77,-182.36 -217.93,-283.85 -5.32,-8.81 -2.01,-18.32 7.08,-22.68 103.85,-49.78 196.21,-135.65 262.27,-228.59 142.41,-200.3 122.26,-457.74 1.14,-662.66 -6.25,-10.56 1.19,-26.32 14.9,-23.38 42.04,9.06 85.81,19.08 124.63,37.99 -6.24,7.4 -12.48,14.78 -18.72,22.16 -26.07,-48.69 -76.6,-87.84 -118.23,-123.22 -11.12,-9.46 -2.52,-29.35 12.32,-26.22 34.15,7.2 68.09,16.17 101.32,26.82 39.94,12.81 97.37,27.62 121.08,66.02 -8.78,4.6 -17.57,9.21 -26.36,13.81 -10.91,-29.89 -30.1,-57.19 -48.1,-83.27 -9.15,-13.26 5.21,-26.94 18.72,-22.16 106.44,37.66 307.35,142.9 222.47,282.62 -9.93,16.34 -37.17,3.68 -27.11,-12.88 73.52,-121.02 -117.65,-210.58 -208.23,-242.63 6.24,-7.39 12.48,-14.78 18.72,-22.16 19.44,28.15 39.88,57.74 51.68,90.07 5.73,15.72 -17.24,28.58 -26.36,13.81 -20.9,-33.85 -80.2,-47.1 -115.54,-57.97 -28.75,-8.84 -58.08,-16.33 -87.51,-22.53 4.1,-8.74 8.21,-17.48 12.32,-26.22 43.29,36.79 96.18,78.09 123.38,128.9 6.63,12.36 -3.99,29.34 -18.72,22.16 -36.5,-17.78 -77.42,-27.03 -116.98,-35.54 4.97,-7.8 9.93,-15.59 14.89,-23.38 123.31,208.62 146.58,462.84 14.5,673.28 -68.53,109.17 -175.11,207.24 -292.07,263.32 2.36,-7.56 4.72,-15.12 7.08,-22.68 59.77,99.19 128.54,198.32 212.77,278.18 14.1,13.37 -3.81,34.27 -19.41,22.88 -107.49,-78.46 -238.24,-143.6 -374.41,-111.57 -105.25,24.77 -183.77,109.43 -237.88,198.49 -4.99,-7.13 -9.98,-14.26 -14.97,-21.38 164.05,-11.62 328.86,-17.52 493.12,-6.85 90.05,5.84 181.95,16.76 268.14,44.67 41.75,13.52 122.02,39.97 136.65,90.09 -5.17,-3.24 -10.32,-6.49 -15.49,-9.73 123.01,-16.59 257.19,-7.57 372.9,38.16 -6.83,6.25 -13.67,12.5 -20.51,18.75 -21.27,-45.27 -57.06,-83.54 -98.05,-111.95 -10.62,-7.35 -4.13,-25.97 8.29,-26.37 47.28,-1.54 94.55,-3.25 141.81,-5.25 -2.76,8.79 -5.52,17.58 -8.29,26.37 -27.55,-20.87 -57.22,-38.61 -88.64,-53.04 -15.66,-7.19 -7.53,-30.85 9.04,-28.32 98.05,14.95 168.59,-1.56 251.41,-52.66 3.34,9.07 6.68,18.15 10.02,27.22 -70.98,2.9 -145.35,-15.26 -202.83,-58.65 -7.81,-5.89 -6.47,-18.4 1.1,-23.73 34.98,-24.63 81.18,-51.75 88.15,-97.71 6.18,-40.84 -25.51,-92.45 -43.72,-127.06 -30.72,-58.38 -66.31,-114.66 -103.27,-169.29 -10.84,-16.02 13.72,-33.25 24.57,-17.2"
             style="fill:#231f20;fill-opacity:1;fill-rule:nonzero;stroke:none"
             id="path132" /><path
             d="m 6212.1,2563.88 c -3.85,-28.85 -16.4,-78.48 -52.5,-79.89 -46.45,-1.81 3.94,68.01 9.52,79 11.52,22.72 19.21,45.43 25.13,70.13 27.14,113.3 9.19,228.59 -10.25,341.41 -7.86,45.64 -18.96,98.47 7.07,140.25 29.9,47.97 77.2,49.94 121.28,23.27 98.25,-59.42 159.47,-190.54 175.67,-299.8 2.84,-19.15 32.38,-13.9 29.55,5.21 -18.81,126.75 -98.16,289.91 -226.29,338.16 -47.23,17.79 -88.36,-7.7 -119.35,-42.41 -37.32,-41.82 -27.39,-106.29 -19.68,-156.43 14.54,-94.7 31.62,-185.82 22.83,-282.2 -3.58,-39.29 -11.84,-78.52 -27.77,-114.69 -13.08,-29.7 -35.13,-54.37 -41.71,-86.68 -8.86,-43.44 61.3,-53.69 87.2,-35.8 31.08,21.46 44.37,61.57 49.18,97.64 2.56,19.23 -27.33,21.93 -29.88,2.83"
             style="fill:#231f20;fill-opacity:1;fill-rule:nonzero;stroke:none"
             id="path134" /><path
             d="m 6312.76,3360.81 c -28.75,-55.67 5.16,-130.42 33.75,-178.56 67.46,-113.6 184.99,-190.69 300.78,-247.79 17.38,-8.57 27.56,19.68 10.41,28.14 -106.25,52.4 -206.91,120.81 -275.47,219.17 -29.46,42.26 -68.18,116.63 -41.32,168.63 8.88,17.19 -19.39,27.35 -28.15,10.41"
             style="fill:#231f20;fill-opacity:1;fill-rule:nonzero;stroke:none"
             id="path136" /><path
             d="m 6509.23,2885.07 c 93.98,39.45 288.39,89.43 325.69,-46.96 38.98,-142.44 -162.44,-157.56 -255.95,-163.69 -19.28,-1.27 -13.87,-30.8 5.22,-29.55 123.03,8.08 324.25,37.73 277.78,207.6 -42.15,154.05 -259.83,104.11 -365.61,59.71 -17.84,-7.49 -4.94,-34.58 12.87,-27.11"
             style="fill:#231f20;fill-opacity:1;fill-rule:nonzero;stroke:none"
             id="path138" /><path
             d="m 6330.4,2748.98 c 35.23,90.23 67.87,255.61 -62.55,280.14 -7.88,1.49 -15.85,-5.91 -16.36,-13.52 -3.75,-57.1 14.65,-115.06 40.79,-165.43 8.87,-17.11 36.04,-4.34 27.1,12.87 -23.68,45.63 -41.41,97.91 -38,149.73 -5.46,-4.51 -10.91,-9.01 -16.36,-13.52 104.79,-19.71 63.93,-171.53 37.24,-239.86 -7.05,-18.07 21.12,-28.4 28.14,-10.41"
             style="fill:#231f20;fill-opacity:1;fill-rule:nonzero;stroke:none"
             id="path140" /><path
             d="m 6169.24,2547.69 c 58.07,3.89 115.52,-14.56 163.59,-46.57 32.36,-21.54 44.88,-46.72 86.78,-48.87 52.62,-2.69 67.68,45.73 86.94,83.5 34.34,67.34 75.5,134.01 128.11,188.64 24.2,25.13 53.39,47.99 88.52,53.84 22.34,3.72 14.89,5.63 -2.13,-3.78 -27.41,-15.16 -59.35,-22.07 -89.55,-29.12 -18.76,-4.39 -13.65,-33.96 5.22,-29.55 11.32,2.64 184.96,51.52 120.83,88.61 -57.67,33.34 -135.72,-48.2 -167.42,-84.6 -53.24,-61.12 -94.58,-134.98 -128.69,-208.26 -32.92,-70.71 -96.53,8.7 -136.62,29.59 -50.35,26.24 -103.95,39.92 -160.8,36.12 -19.28,-1.29 -13.87,-30.82 5.22,-29.55"
             style="fill:#231f20;fill-opacity:1;fill-rule:nonzero;stroke:none"
             id="path142" /><path
             d="m 5887.04,3583.77 c -161.8,20.07 -332.33,20.6 -492.51,-10.67 -18.96,-3.7 -13.79,-33.26 5.22,-29.54 157.75,30.79 325.07,30.11 484.46,10.34 19.25,-2.39 21.97,27.5 2.83,29.87"
             style="fill:#231f20;fill-opacity:1;fill-rule:nonzero;stroke:none"
             id="path144" /><path
             d="m 5422.97,3551.25 c 83.56,-95.96 268.17,-56.99 357.31,11.39 15.35,11.78 -4.08,34.64 -19.41,22.88 -75.77,-58.13 -243.38,-97.12 -315.01,-14.86 -12.69,14.57 -35.63,-4.79 -22.89,-19.41"
             style="fill:#231f20;fill-opacity:1;fill-rule:nonzero;stroke:none"
             id="path146" /><path
             d="m 6574.69,3360.87 c 10.79,-148.8 67.22,-300.97 153.02,-422.05 11.19,-15.77 34.01,3.72 22.9,19.42 -82.9,116.94 -135.96,264.3 -146.37,407.84 -1.41,19.29 -30.94,13.89 -29.55,-5.21"
             style="fill:#231f20;fill-opacity:1;fill-rule:nonzero;stroke:none"
             id="path148" /><path
             d="m 6535.29,3261.08 c 14.89,-77.04 29.77,-154.08 44.65,-231.11 3.67,-18.98 33.22,-13.8 29.55,5.2 -14.88,77.04 -29.76,154.08 -44.65,231.12 -3.67,18.97 -33.22,13.79 -29.55,-5.21"
             style="fill:#231f20;fill-opacity:1;fill-rule:nonzero;stroke:none"
             id="path150" /><path
             d="m 6498.36,3215.2 c 0,-60.41 0,-120.81 0,-181.21 0,-19.21 29.88,-22.16 29.88,-2.84 0,60.41 0,120.81 0,181.21 0,19.21 -29.88,22.16 -29.88,2.84"
             style="fill:#231f20;fill-opacity:1;fill-rule:nonzero;stroke:none"
             id="path152" /><path
             d="m 6232.3,3601.49 c -53.73,-9.6 -104.48,-40.46 -143.49,-77.49 -62.33,-59.14 -111.05,-173.02 -80.87,-258.01 22.82,-64.28 101.26,-31.05 135.38,0.87 37.94,35.48 52.38,90.27 66.97,138.1 16.49,54.07 29.75,114.91 18.39,171.23 -3.82,18.93 -33.38,13.77 -29.55,-5.21 16.21,-80.34 -15.63,-198.5 -61.5,-265.16 -34.37,-49.95 -107.54,-71.24 -107.91,10.38 -0.54,116.86 91.14,234.91 207.8,255.75 19.04,3.4 13.84,32.94 -5.22,29.54"
             style="fill:#231f20;fill-opacity:1;fill-rule:nonzero;stroke:none"
             id="path154" /><path
             d="m 6141.21,3251.28 c -33.44,-56.74 -93.99,-86.35 -155.84,-54.94 -17.26,8.78 -27.43,-19.48 -10.41,-28.13 72.95,-37.07 150.93,-1.85 190.82,65.86 9.77,16.57 -14.74,33.9 -24.57,17.21"
             style="fill:#231f20;fill-opacity:1;fill-rule:nonzero;stroke:none"
             id="path156" /><path
             d="m 6475.01,3393.66 c 17.04,-87.77 -17.33,-175.03 -115.12,-183.64 -19.27,-1.69 -13.9,-31.23 5.22,-29.54 113.89,10.03 159.54,114.93 139.45,218.39 -3.69,18.97 -33.24,13.8 -29.55,-5.21"
             style="fill:#231f20;fill-opacity:1;fill-rule:nonzero;stroke:none"
             id="path158" /><path
             d="m 5916.19,3027.28 c -72.36,-175.61 -85.49,-347.08 -63.73,-535.69 2.23,-19.24 31.76,-13.92 29.55,5.21 -21.21,183.8 -8.1,349.16 62.33,520.07 7.39,17.94 -20.8,28.24 -28.15,10.41"
             style="fill:#231f20;fill-opacity:1;fill-rule:nonzero;stroke:none"
             id="path160" /><path
             d="m 5871.55,3087.68 c -123.2,-247.68 -206.62,-576.19 -109.79,-844.16 6.26,6.84 12.51,13.67 18.76,20.51 -41.4,19.71 -80.32,44.85 -117.41,71.75 -12.61,9.14 -27.87,-5.31 -22.16,-18.72 29.76,-70.04 59.53,-140.07 89.29,-210.1 6.26,6.83 12.51,13.67 18.76,20.51 -42.1,18.88 -86.78,42.57 -132.48,50.77 -12.21,2.19 -18.64,-11.68 -14.97,-21.38 34.54,-91.15 65.25,-183.85 93.32,-277.19 7.8,4.97 15.59,9.94 23.38,14.9 -32.39,19.26 -64.77,38.52 -97.17,57.78 -11.42,6.8 -31.02,-4.85 -22.15,-18.72 53.93,-84.3 89.32,-186.31 93.16,-286.29 8.8,2.76 17.59,5.53 26.39,8.29 -33.34,34.69 -80.07,55.79 -118.92,83.55 -71.45,51.04 -119.54,120.66 -140.38,206.12 -3.86,15.8 -28.74,16.49 -29.72,-1.19 -2.65,-48.54 -1.66,-97.67 5.42,-145.84 8.74,4.1 17.48,8.21 26.21,12.31 -79.7,102.21 -111.41,245.87 -81.4,371.14 3.81,15.9 -15.66,28.44 -26.36,13.81 -18.65,-25.49 -36.67,-51.45 -52.53,-78.79 9.01,-2 18.04,-4 27.06,-5.99 -11.71,118.19 11.36,282.87 99.98,372.01 13.73,13.82 -3.49,33.86 -19.41,22.89 -31,-21.38 -61.75,-43.11 -91.92,-65.65 7.93,-5.56 15.85,-11.11 23.78,-16.65 31.04,93.8 91.33,162.89 167.9,223 43.47,34.12 101.63,65.55 127.94,116.38 32.91,63.6 42.47,139.9 59.04,208.84 16.79,69.93 34.86,163.26 95.1,209.78 15.32,11.82 -4.12,34.69 -19.41,22.88 -56.34,-43.5 -77.22,-121.48 -94.9,-186.94 -20.65,-76.42 -30.68,-157.53 -61.46,-230.84 -25.35,-60.38 -103.25,-98.2 -151.57,-138.01 -69.65,-57.35 -122.34,-128.72 -150.78,-214.68 -4.86,-14.7 11.77,-25.62 23.78,-16.65 30.16,22.54 60.92,44.28 91.91,65.65 -6.47,7.63 -12.94,15.26 -19.41,22.89 -96.81,-97.39 -122.98,-270.26 -110.12,-400.12 1.26,-12.64 20.63,-17.09 27.06,-5.99 15.87,27.33 33.89,53.3 52.53,78.79 -8.78,4.6 -17.57,9.21 -26.36,13.8 -32.67,-136.4 -0.22,-289.55 86.68,-400.96 9.51,-12.21 28.29,-1.88 26.21,12.31 -6.71,45.6 -7.61,91.84 -5.08,137.8 -9.92,-0.41 -19.82,-0.8 -29.72,-1.2 19.46,-79.77 58.98,-145.39 120.29,-199.84 44.35,-39.38 104.79,-61.47 145.67,-104.02 7.87,-8.2 26.92,-5.9 26.38,8.29 -4.06,105.47 -38.92,212.88 -95.93,301.99 -7.39,-6.24 -14.78,-12.48 -22.16,-18.72 32.39,-19.27 64.77,-38.53 97.16,-57.78 9.88,-5.87 27.51,1.13 23.38,14.89 -28.85,95.9 -60.28,191.2 -95.76,284.84 -4.99,-7.12 -9.98,-14.25 -14.97,-21.37 42.7,-7.65 85.53,-31.37 124.9,-49.04 12.73,-5.7 23.56,9.22 18.76,20.51 -29.76,70.04 -59.53,140.07 -89.29,210.1 -7.4,-6.24 -14.78,-12.48 -22.16,-18.72 39.23,-28.44 80.43,-54.48 124.21,-75.33 13.17,-6.26 22.72,9.53 18.76,20.51 -93.89,259.82 -8.44,581.12 110.83,820.88 8.62,17.35 -19.63,27.53 -28.15,10.41"
             style="fill:#231f20;fill-opacity:1;fill-rule:nonzero;stroke:none"
             id="path162" /><path
             d="m 5869.86,2550.33 c 39.05,11.99 86.47,21.46 126.13,8.58 18.39,-5.96 28.81,22.17 10.41,28.15 -45.03,14.62 -97.29,6.46 -141.75,-7.18 -18.24,-5.61 -13.25,-35.22 5.21,-29.55"
             style="fill:#231f20;fill-opacity:1;fill-rule:nonzero;stroke:none"
             id="path164" /><path
             d="m 6255.53,2359.09 c 59.49,-176.17 22.45,-390.71 -69.64,-549.61 -4.84,-8.34 -2.52,-19 7.08,-22.68 26.91,-10.31 59.03,18.5 60.69,-27.14 2.06,-56.92 -23.23,-120.48 -39.6,-174.2 -44.03,-144.47 -100.54,-286.61 -169.79,-420.84 -4.06,-7.89 2.32,-15.91 8.86,-19.28 26.53,-13.64 118.52,-91.33 42.96,-108 -30.6,-6.75 -66.58,4.52 -94.81,15.31 -35.25,13.47 -78.41,48.64 -30.69,77.02 22.18,13.2 42.97,29.17 56.38,51.6 53.28,89.09 93.56,190.51 124.49,289.21 20.36,64.95 58.73,182.54 -18.41,223.36 -110.63,58.55 20.65,274.64 56.4,334.8 9.84,16.53 -14.66,33.87 -24.57,17.21 -51.89,-87.32 -165.19,-276.27 -60.59,-368.59 13.02,-11.49 29.02,-13.27 37.27,-30.09 12.61,-25.68 5.65,-61.47 1.25,-88.27 -12.97,-79.05 -44.97,-156.07 -76.55,-229.23 -20.1,-46.55 -40.44,-95.88 -68.37,-138.44 -19.76,-30.13 -77.38,-38.63 -80.2,-79.78 -2.01,-29.23 13.06,-49.21 35.32,-66.57 38.27,-29.87 132.42,-60.208 176.3,-25.97 68.07,53.12 -16.61,129.29 -65.77,154.57 2.96,-6.42 5.91,-12.85 8.87,-19.27 79.18,153.49 142.37,317.34 188.1,483.88 12.79,46.59 37.18,111.39 15.46,157.88 -16.14,34.54 -48.37,9.69 -72.59,18.98 2.36,-7.56 4.73,-15.12 7.08,-22.68 98.02,169.13 135.42,392.38 72.18,579.69 -6.18,18.28 -33.24,5.25 -27.11,-12.87"
             style="fill:#231f20;fill-opacity:1;fill-rule:nonzero;stroke:none"
             id="path166" /><path
             d="m 6284.12,2282.32 c 64.94,-40.21 110.26,-109.68 134.24,-180.61 7.38,6.24 14.77,12.48 22.16,18.72 -26.6,18.74 -55.48,34.37 -84.04,49.9 -14.69,8 -30.82,-7.77 -20.03,-21.99 43.37,-57.29 68.76,-129.42 75.44,-200.38 8.74,4.11 17.49,8.22 26.22,12.32 -22.49,32.12 -47.78,62.18 -76.16,89.29 -12.76,12.18 -30.21,0.12 -25,-16.15 12.78,-39.82 16.42,-94.66 17,-139.21 8.79,2.76 17.58,5.52 26.38,8.29 -30.22,41.27 -54.26,87.4 -76.68,133.29 -8.47,17.35 -35.61,4.54 -27.11,-12.87 23.6,-48.28 49.11,-96.43 80.9,-139.84 7.33,-9.99 26.55,-4.59 26.39,8.29 -0.69,51.87 -3.82,105.19 -19.77,154.92 -8.33,-5.38 -16.66,-10.76 -25,-16.14 28.39,-27.11 53.67,-57.16 76.17,-89.28 9.34,-13.33 27.48,-1.08 26.22,12.31 -7.2,76.35 -35.59,153.11 -82.13,214.57 -6.68,-7.33 -13.36,-14.67 -20.04,-21.99 28.55,-15.54 57.43,-31.16 84.03,-49.9 13.34,-9.41 26.67,5.35 22.16,18.72 -25.49,75.38 -75.25,149.64 -144.14,192.31 -16.39,10.16 -33.69,-14.36 -17.21,-24.57"
             style="fill:#231f20;fill-opacity:1;fill-rule:nonzero;stroke:none"
             id="path168" /><path
             d="m 5994.18,1869.88 c -68.4,-106.28 -146.97,-224.33 -178.73,-347.77 -4.71,-18.3 1.01,-20.92 6.83,-41.09 7.82,-27.17 -6.36,-51.07 -26.05,-68.03 -22.64,-19.5 -27.84,-12.93 -35.94,-46.63 -17.88,-74.48 -26.07,-152.18 -31.39,-228.51 -0.47,-6.86 3.35,-12.96 9.73,-15.49 45.83,-18.14 90.4,-38.21 132.19,-64.55 12.56,-7.92 82.76,-58.931 50.9,-75.759 -41.57,-21.961 -111.6,-6.11 -154.99,1.879 -26.91,4.961 -53.37,12.722 -78.4,23.74 -38.43,16.94 -16.44,52.46 -3.09,81.72 20.32,44.5 29.39,84.71 36.93,132.73 8.24,52.48 15.49,105.12 22.64,157.76 1.23,8.94 4.91,20.5 3.3,29.66 -2.75,15.52 -18.55,32.25 -23.41,48.04 -9.45,30.7 23.15,37.07 39.35,50.83 15.7,13.34 22.62,58.81 30.05,78.12 13.67,35.5 27.38,70.89 38.76,107.21 16.41,52.34 28.48,113.04 0.69,163.46 -9.28,16.85 -36.46,4.12 -27.1,-12.87 44.33,-80.46 -21.17,-196.23 -50.16,-272.7 -6.34,-16.7 -8.86,-36.87 -24.61,-47.4 -14.04,-9.4 -24.56,-18.2 -32.67,-33.12 -13.7,-25.24 0.17,-54.5 12.39,-77.1 9.02,-16.69 3.25,-33.55 0.35,-54.68 -4.71,-34.32 -9.59,-68.63 -14.67,-102.9 -4.47,-30.26 -9.07,-60.54 -14.79,-90.58 -6.8,-35.64 -27.05,-67.81 -40.33,-101.25 -45.85,-115.428 179.64,-123.518 246.91,-119.659 39.55,2.258 80.32,18.039 67.26,64.679 -21.02,75.11 -144.68,116.19 -207.09,140.88 3.25,-5.16 6.49,-10.32 9.74,-15.48 5.44,78.2 14.37,157.29 32.69,233.58 1.66,6.89 -1.73,4.45 10.1,11.65 10.33,6.28 20.13,13.98 27.98,23.21 20.83,24.47 27.11,51.27 22.27,82.78 -2.94,19.09 -7.25,30.86 -0.97,50.37 6.34,19.7 14.74,38.76 23.13,57.64 18.73,42.09 40.84,82.68 63.36,122.84 25.77,45.95 52.89,91.28 81.41,135.58 10.45,16.24 -14.08,33.51 -24.57,17.21"
             style="fill:#231f20;fill-opacity:1;fill-rule:nonzero;stroke:none"
             id="path170" /><path
             d="m 6062.41,1759.79 c -46,-48.61 -111.78,-79.33 -176.74,-91.21 -19.02,-3.49 -13.81,-33.03 5.22,-29.55 69.72,12.76 141.5,45.64 190.94,97.87 13.13,13.89 -6.1,36.95 -19.42,22.89"
             style="fill:#231f20;fill-opacity:1;fill-rule:nonzero;stroke:none"
             id="path172" /><path
             d="m 5789.9,1673.99 c -28.02,6.12 -56.02,12.26 -84.04,18.39 -18.91,4.13 -21.46,-25.8 -2.83,-29.88 28.01,-6.13 56.02,-12.26 84.04,-18.39 18.91,-4.13 21.46,25.8 2.83,29.88"
             style="fill:#231f20;fill-opacity:1;fill-rule:nonzero;stroke:none"
             id="path174" /><path
             d="m 5471.52,1833.8 c 2.4,-102.02 34.83,-218.59 80.18,-309.87 1.29,5.96 2.57,11.92 3.85,17.88 -19.05,-19.51 -35.89,-39.24 -35.25,-67.85 0.91,-39.59 40.74,-60.59 43.82,-99.52 3.86,-48.77 3.5,-97.99 3.14,-146.89 -0.12,-15.19 -0.39,-30.39 -0.72,-45.58 -0.52,-24.65 -3.66,-10.3 -28.13,-19.93 -61.18,-24.08 -197.39,-59.56 -208.98,-140 -9,-62.56 89.74,-68.11 127.98,-67.528 51.38,0.777 155.37,10.847 184.88,62.058 18.12,31.42 15.94,75.21 14.06,109.94 -1.56,28.71 -9.08,55.63 -10.18,84.73 -1.13,30.45 -0.8,60.95 -0.3,91.4 0.59,36.67 2.2,73.34 4.49,109.93 0.07,1.09 24.12,24.8 27.14,30.21 7.77,13.89 7.18,29.26 4.85,44.36 -2.07,13.55 -10.98,25.47 -18.77,36.25 -4.75,6.62 -11.89,13.29 -18.38,18.21 -7.49,5.67 -5,51.24 -5.16,55.31 -1.42,35.98 -2.03,72 -2.07,108 -0.03,19.2 -29.9,22.15 -29.88,2.83 0.05,-41.25 1.07,-82.49 2.69,-123.7 0.59,-14.81 -4.12,-46.14 6.06,-58.13 27.76,-32.65 56.52,-57.55 9.11,-97.03 -13.94,-11.6 -7.72,-55.09 -8.34,-69.96 -2.53,-59.66 -2.85,-119.39 0.18,-179.03 2.57,-50.39 33.1,-134.03 -23.6,-164.7 -42.93,-23.21 -97.18,-30.241 -145.29,-30.979 -42.79,-0.652 -126.75,16.569 -65.93,69.079 54.74,47.27 138.41,69.94 204.48,95.85 4.54,1.78 8.35,7.27 8.51,12.14 1.67,54.7 1.78,109.48 0.32,164.18 -0.7,26.12 4.3,66.78 -6.96,90.53 -7.56,15.92 -26.23,28.56 -35.17,44.86 -12.74,23.27 5.86,42.77 20.81,58.07 4.69,4.82 7.04,11.45 3.85,17.88 -42.65,85.84 -75.15,197.78 -77.4,294.17 -0.45,19.13 -30.34,22.12 -29.89,2.83"
             style="fill:#231f20;fill-opacity:1;fill-rule:nonzero;stroke:none"
             id="path176" /><path
             d="m 6095.94,1692.95 c -43.26,-168.6 -110.42,-336.73 -201.55,-484.94 -3.75,-6.09 -3.37,-12.56 0.84,-18.31 32.78,-44.49 -4.3,-66.36 -49.5,-75.51 -18.92,-3.84 -13.77,-33.39 5.22,-29.56 68.93,13.97 115.43,58.96 67.18,124.49 0.27,-6.11 0.55,-12.21 0.83,-18.31 92.56,150.54 161.19,320.51 205.12,491.73 4.77,18.58 -23.34,29.13 -28.14,10.41"
             style="fill:#231f20;fill-opacity:1;fill-rule:nonzero;stroke:none"
             id="path178" /><path
             d="m 5990.23,1686.8 c 13,-100.71 -30.96,-209.33 -66.36,-301.57 -22.66,-59.01 -47.95,-117.41 -76.26,-173.95 5.16,3.24 10.32,6.48 15.49,9.73 -42.49,2.32 -86.4,-15.83 -124.53,-33.05 -17.62,-7.95 -4.76,-35.06 12.88,-27.1 33.22,15 71.75,32.29 108.81,30.27 7.34,-0.4 12.34,3.44 15.49,9.74 31.81,63.53 59.51,129.31 84.55,195.78 34.25,90.89 72.22,196.67 59.49,295.37 -2.49,19.21 -32.02,13.91 -29.56,-5.22"
             style="fill:#231f20;fill-opacity:1;fill-rule:nonzero;stroke:none"
             id="path180" /><path
             d="m 1553.36,3077.98 c -68.25,48.94 -70.25,163.47 2.85,209.57 33.41,21.07 72.77,7.34 98.55,-18.21 31.52,-31.26 35.03,-79.43 28.21,-120.46 -3.18,-19.13 26.72,-21.78 29.87,-2.83 16.38,98.59 -58.1,221.79 -169.51,168.61 -100.36,-47.91 -87.51,-203.65 -7.17,-261.25 15.74,-11.29 32.93,13.3 17.2,24.57"
             style="fill:#231f20;fill-opacity:1;fill-rule:nonzero;stroke:none"
             id="path182" /><path
             d="m 1658.33,3186.08 c 0,-32.21 -20.89,-58.33 -46.66,-58.33 -25.78,0 -46.67,26.12 -46.67,58.33 0,32.22 20.89,58.34 46.67,58.34 25.77,0 46.66,-26.12 46.66,-58.34"
             style="fill:#231f20;fill-opacity:1;fill-rule:nonzero;stroke:none"
             id="path184" /><path
             d="m 1935.06,3385.89 c 64.97,14.56 132.85,-11.46 167.32,-68.92 9.86,-16.41 37.08,-3.73 27.11,12.88 -41.23,68.71 -120.69,103.28 -199.63,85.59 -18.82,-4.22 -13.69,-33.78 5.2,-29.55"
             style="fill:#231f20;fill-opacity:1;fill-rule:nonzero;stroke:none"
             id="path186" /><path
             d="m 1661.89,3402.73 c -73.59,8.32 -167.36,-7.87 -205.22,-78.76 -9,-16.85 15.46,-34.26 24.57,-17.21 32.89,61.59 114.11,73.3 177.82,66.09 19.27,-2.18 22.01,27.71 2.83,29.88"
             style="fill:#231f20;fill-opacity:1;fill-rule:nonzero;stroke:none"
             id="path188" /><path
             d="m 1546.04,2863.07 c -0.97,1.18 -0.23,0.96 0.49,-2.47 1.59,-7.55 -1.32,-15.45 -4.04,-22.38 -18.18,-46.37 -69.29,-81.74 -107.38,-110.1 -15.52,-11.56 3.94,-34.4 19.41,-22.89 44.52,33.16 99.57,74.08 118.53,129.14 5.12,14.86 6.52,35.1 -4.13,48.12 -12.25,14.97 -35.15,-4.43 -22.88,-19.42"
             style="fill:#231f20;fill-opacity:1;fill-rule:nonzero;stroke:none"
             id="path190" /><path
             d="m 1023.56,2845.8 c -25.81,-59.36 31.7,-118.61 74.68,-151.07 15.46,-11.69 32.61,12.93 17.2,24.57 -31.68,23.94 -83.43,70.8 -63.73,116.09 7.74,17.79 -20.46,28.06 -28.15,10.41"
             style="fill:#231f20;fill-opacity:1;fill-rule:nonzero;stroke:none"
             id="path192" /><path
             d="m 6786.88,3846.28 c 117.42,115.43 151.86,309.3 183.1,463.05 1.72,8.49 -6.16,15.05 -13.52,16.35 -44.66,7.92 -104.74,18.45 -131.57,60.06 -15.27,23.71 -2.16,64.95 2.95,89.91 9.28,45.3 22.49,90.14 36.66,134.15 -7.56,-2.37 -15.12,-4.73 -22.67,-7.08 120.37,-84.7 288.14,-107.35 430.73,-103.1 -4.45,4.12 -8.91,8.23 -13.36,12.34 11.14,-43.66 23.56,-89.42 16.71,-134.72 -10.34,-68.32 -101.14,-66.65 -152.31,-64.2 -8.65,0.41 -14.92,-5.18 -16.35,-13.52 -22.32,-130.13 -51.38,-259.25 -97.08,-383.33 -18.76,-50.92 -41.46,-100.45 -69.22,-147.1 -11.03,-18.53 -23.55,-36.11 -36.79,-53.12 -7.24,-9.27 -15.17,-17.93 -23.32,-26.4 -10.01,-10.41 -15.82,-2.12 -28.97,3.45 -78.73,33.39 -163.66,38.37 -243.3,6.59 -41.26,-16.46 -101.79,-74.56 -147.99,-51.27 -17.3,8.72 -27.47,-19.54 -10.41,-28.14 46.97,-23.69 94.34,12.8 134.42,34.59 95.37,51.85 190.63,41.22 287.4,-3.44 4.62,-2.13 11.24,-0.75 14.91,2.64 69.59,64.19 112.13,151.76 146.38,238.59 51.02,129.37 80.41,267.45 103.85,404.11 -5.46,-4.51 -10.91,-9.02 -16.36,-13.52 60.39,-2.9 137.68,-2.22 172.86,56.21 30.96,51.42 8.66,124.75 -4.88,177.78 -1.5,5.9 -6.46,12.54 -13.36,12.34 -137.69,-4.11 -299.98,15.91 -416.36,97.79 -7.65,5.39 -19.69,2.17 -22.67,-7.08 -19.94,-61.96 -39.04,-126.12 -46.57,-190.92 -10.86,-93.32 90.64,-120.5 163.83,-133.48 -4.5,5.45 -9.01,10.9 -13.52,16.35 -29.28,-144.15 -62.08,-334.32 -172.63,-443 -13.7,-13.47 5.58,-36.48 19.41,-22.88"
             style="fill:#231f20;fill-opacity:1;fill-rule:nonzero;stroke:none"
             id="path194" /><path
             d="m 6277.71,3681.82 c -72.26,25.93 -151.85,-0.12 -202.42,-55.13 -12.9,-14.04 6.32,-37.13 19.42,-22.88 43.37,47.18 109.86,72.38 172.58,49.87 18.24,-6.55 28.62,21.61 10.42,28.14"
             style="fill:#231f20;fill-opacity:1;fill-rule:nonzero;stroke:none"
             id="path196" /><path
             d="m 6317.56,3436.67 c -4.58,-28.52 -15.84,-93.37 31.27,-92.25 53.58,1.28 147.28,103.73 180.12,16.89 6.83,-18.08 33.9,-5.12 27.1,12.88 -17.21,45.52 -66.13,58.68 -110.19,44.23 -28.18,-9.23 -52.32,-25.4 -78.88,-38.11 -36.88,-17.67 -23.16,30.99 -19.54,53.52 3.08,19.16 -26.82,21.81 -29.88,2.84"
             style="fill:#231f20;fill-opacity:1;fill-rule:nonzero;stroke:none"
             id="path198" /><path
             d="m 6134.36,3390.87 c -5.76,-24.89 -21.32,-42.54 -34.78,-39.43 -13.45,3.11 -19.69,25.8 -13.94,50.69 5.76,24.89 21.32,42.54 34.77,39.43 13.46,-3.11 19.7,-25.8 13.95,-50.69"
             style="fill:#231f20;fill-opacity:1;fill-rule:nonzero;stroke:none"
             id="path200" /><path
             d="m 6424.36,3290.87 c -5.76,-24.89 -21.32,-42.54 -34.78,-39.43 -13.45,3.11 -19.69,25.8 -13.94,50.69 5.76,24.89 21.32,42.54 34.77,39.43 13.46,-3.11 19.7,-25.8 13.95,-50.69"
             style="fill:#231f20;fill-opacity:1;fill-rule:nonzero;stroke:none"
             id="path202" /></g></g></g></g></svg>