<?xml version="1.0" encoding="UTF-8" standalone="no"?>
<!-- Created with Inkscape (http://www.inkscape.org/) -->

<svg
   xmlns:dc="http://purl.org/dc/elements/1.1/"
   xmlns:cc="http://creativecommons.org/ns#"
   xmlns:rdf="http://www.w3.org/1999/02/22-rdf-syntax-ns#"
   xmlns:svg="http://www.w3.org/2000/svg"
   xmlns="http://www.w3.org/2000/svg"
   xmlns:sodipodi="http://sodipodi.sourceforge.net/DTD/sodipodi-0.dtd"
   xmlns:inkscape="http://www.inkscape.org/namespaces/inkscape"
   width="744.09448819"
   height="1052.3622047"
   id="svg3315"
   version="1.1"
   inkscape:version="0.48.5 r10040"
   sodipodi:docname="New document 2">
  <defs
     id="defs3317" />
  <sodipodi:namedview
     id="base"
     pagecolor="#ffffff"
     bordercolor="#666666"
     borderopacity="1.0"
     inkscape:pageopacity="0.0"
     inkscape:pageshadow="2"
     inkscape:zoom="0.35"
     inkscape:cx="375"
     inkscape:cy="520"
     inkscape:document-units="px"
     inkscape:current-layer="layer1"
     showgrid="false"
     inkscape:window-width="1920"
     inkscape:window-height="1017"
     inkscape:window-x="1272"
     inkscape:window-y="-8"
     inkscape:window-maximized="1" />
  <metadata
     id="metadata3320">
    <rdf:RDF>
      <cc:Work
         rdf:about="">
        <dc:format>image/svg+xml</dc:format>
        <dc:type
           rdf:resource="http://purl.org/dc/dcmitype/StillImage" />
        <dc:title></dc:title>
      </cc:Work>
    </rdf:RDF>
  </metadata>
  <g
     inkscape:label="Layer 1"
     inkscape:groupmode="layer"
     id="layer1">
    <g
       transform="matrix(0.26973606,0,0,-0.26973606,-1306.4358,1282.7052)"
       id="g3220">
      <path
         d="m 5237.59,3646.48 c 0,0 725.2,-65.04 872.17,108.42 120.45,0 308.38,12.05 356.57,40.96 -40.96,-74.69 -84.33,-108.42 -84.33,-108.42 l 130.1,-7.23 -72.28,-53 c 0,0 151.79,14.45 236.12,-55.42 -67.46,-7.22 -139.74,-16.86 -173.47,-60.23 74.69,-55.41 86.73,-101.19 86.73,-130.1 0,-28.91 -12.04,-175.88 154.2,-433.67 -31.33,-4.82 -89.15,-4.82 -89.15,-4.82 l -144.55,86.73 2.4,178.29 -77.09,-113.23 c 0,0 106.01,-108.43 245.74,-159.02 -42.71,-6.41 -301.64,-204.09 -364.93,-468.8 -5.39,-22.55 -29.14,-45.59 -30.97,-69.03 -0.91,-11.76 -11.34,-23.62 -11.26,-35.57 19.28,-77.09 36.15,-89.14 36.15,-89.14 0,0 91.55,-65.05 113.23,-156.6 -24.09,14.45 -67.46,36.13 -67.46,36.13 0,0 62.63,-110.82 72.27,-195.15 -43.36,48.19 -74.68,77.1 -74.68,77.1 l 19.27,-134.92 -86.74,127.69 c -14.45,-62.64 -84.31,-221.65 -84.31,-221.65 0,0 55.41,0 62.64,-26.51 7.22,-43.37 -69.88,-358.99 -199.98,-614.37 65.05,-55.41 89.15,-81.91 62.65,-127.69 -26.5,-45.781 -163.83,0 -183.1,31.32 -7.23,12.04 -40.96,45.78 50.59,93.97 43.36,62.63 202.37,356.56 163.83,493.89 -19.28,19.28 -50.6,31.33 -50.6,31.33 0,0 -81.91,-332.49 -199.97,-481.87 26.51,-48.18 31.33,-89.13 -55.41,-110.82 -38.55,-9.63 -209.62,-7.22 -98.79,81.92 24.11,14.45 106.02,28.9 106.02,28.9 0,0 180.7,334.9 142.15,486.68 -50.6,-24.09 -120.47,-36.14 -120.47,-36.14 l -53,-139.73 c 0,0 45.78,-57.83 -43.37,-132.51 -12.05,-69.88 -33.74,-103.61 -38.55,-243.34 106.01,-45.78 199.97,-101.19 199.97,-154.189 0,-19.282 -166.24,-65.051 -291.53,26.499 0,43.36 26.51,89.14 36.15,139.74 9.64,50.59 48.18,243.34 48.18,243.34 0,0 -31.33,36.13 -26.5,79.5 4.82,12.05 48.19,48.18 48.19,48.18 l 40.96,134.92 c 0,0 -103.6,-4.81 -166.24,93.97 -62.65,98.78 -4.82,-26.5 -9.64,-209.61 28.9,-36.14 65.05,-65.04 7.22,-130.1 4.82,-122.88 4.83,-228.87 9.64,-358.98 0,-38.56 -67.45,-67.471 -149.37,-81.928 -48.2,-12.043 -137.34,-7.223 -144.56,36.148 -4.82,31.31 60.24,106.01 228.88,151.78 4.82,86.74 2.41,238.52 2.41,238.52 0,0 -50.59,50.6 -45.77,81.92 4.81,31.32 33.73,50.6 33.73,50.6 0,0 -120.46,267.43 -84.33,366.21 36.13,98.78 332.47,1076.95 397.53,1173.32 9.64,-16.87 50.59,-65.05 50.59,-65.05 0,0 -96.36,-159.01 -65.04,-436.08 21.68,0 115.65,19.26 137.33,4.81 24.09,154.2 0,284.3 -43.37,392.72 -24.09,72.28 -178.3,240.93 -305.99,308.39 50.6,89.15 168.66,245.75 168.66,245.75 0,0 -161.43,-108.42 -284.3,-96.38 -122.87,12.05 -265.05,130.09 -301.17,221.65"
         style="fill:#7e5c36;fill-opacity:1;fill-rule:nonzero;stroke:none"
         id="path28"
         inkscape:connector-curvature="0" />
      <path
         d="m 7275.13,4512.81 c 0,0 101.24,-235.15 -146.98,-215.55 -19.59,-173.1 -104.51,-529.09 -248.21,-633.6 35,20 -199.22,45.73 -199.22,45.73 0,0 -128.57,-65.22 -240.9,-82.18 37.68,28.04 62.68,50.54 62.68,50.54 l -120.5,9.69 c 45.5,35.31 84.33,108.42 84.33,108.42 0,0 -186.33,-58.11 -353.83,-33.11 -85,-75 -132.5,-72.5 -132.5,-72.5 0,0 -270,70 -360,227.5 27.5,77.5 97.5,160 97.5,160 0,0 -5,-87.5 280,-182.5 10,7.5 32.5,187.5 -40,262.5 -47.5,7.5 -262.5,50 -295,117.5 -32.5,67.5 -25,327.5 -25,327.5 l 175,55 c 0,0 -42.5,-147.5 -10,-230 32.5,-82.5 117.5,-107.5 175,-132.5 -17.5,80 -25,282.5 -2.5,332.5 75,25 202.5,67.5 202.5,67.5 -45,-127.5 -140,-282.5 0,-845 82.5,187.5 170,427.5 95,657.5 137.5,77.5 295,110 295,110 l 95,-147.5 c 0,0 -137.5,20 -190,-42.5 -52.5,-62.5 -27.5,-182.5 2.5,-202.5 30,-20 185,75 185,75 0,0 37.5,-130 20,-162.5 -17.5,-32.5 -175,-40 -212.5,-32.5 -22.5,-67.5 -42.5,-215 -42.5,-215 0,0 125,20 195,52.5 17.5,12.5 8.47,31.18 86.85,-11.28 -2.5,-35 13.06,26.13 68.59,-78.38 71.85,75.11 53.47,127.47 113.47,164.97 23.7,66.91 36.75,135.5 66.15,285.73 -75,40 -147.74,47.41 -150.24,84.91 -2.5,37.5 35.74,212.85 45.74,225.35 62.5,-57.5 225.34,-101.24 424.57,-101.24"
         style="fill:#9d9085;fill-opacity:1;fill-rule:nonzero;stroke:none"
         id="path30"
         inkscape:connector-curvature="0" />
      <path
         d="m 5775,3192.75 c 0,0 -62.5,-10 -130,-367.5 -7.5,-50 -62.5,-112.5 -107.5,-140 -45,-27.5 -145,-85 -200,-242.5 30,20 72.5,45 72.5,45 0,0 -112.5,-100 -97.5,-372.5 20,32.5 47.5,60 47.5,60 0,0 -67.5,-155 85,-365 -5,45 2.5,117.5 2.5,117.5 0,0 17.5,-102.5 95,-165 77.5,-62.5 162.5,-112.5 162.5,-112.5 0,0 -15,182.5 -87.5,280 42.5,-25 90,-42.5 90,-42.5 l -92.5,280 125,-50 -82.5,202.5 117.5,-70 c 0,0 -70,192.5 -27.5,390 42.5,197.5 70,320 135,440 -35,52.5 -107.5,112.5 -107.5,112.5"
         style="fill:#9d9085;fill-opacity:1;fill-rule:nonzero;stroke:none"
         id="path46"
         inkscape:connector-curvature="0" />
      <path
         d="m 6497.5,2900.25 c 0,0 222.5,75 290,27.5 67.5,-47.5 75,-125 60,-167.5 -15,-42.5 -57.5,-80 -275,-95 -32.5,-50 -112.5,-185 -112.5,-185 0,0 -50,-20 -85,2.5 -35,22.5 -97.5,105 -225,75 40,112.5 60,207.5 35,355 -25,147.5 -40,225 50,260 32.5,12.5 120,-20 167.5,-95 47.5,-75 95,-177.5 95,-177.5"
         style="fill:#9d9085;fill-opacity:1;fill-rule:nonzero;stroke:none"
         id="path48"
         inkscape:connector-curvature="0" />
      <path
         d="m 6212.5,3585.25 c 0,0 -162.5,-35 -200,-257.5 -2.5,-17.5 -10,-90 65,-80 35,5 95,50 117.5,145 22.5,95 20,145 17.5,192.5"
         style="fill:#f5f09d;fill-opacity:1;fill-rule:nonzero;stroke:none"
         id="path50"
         inkscape:connector-curvature="0" />
      <path
         d="m 6342.5,3355.25 c 13.7,9.67 67.5,25 82.5,35 15,10 52.5,17.5 67.5,12.5 15,-5 30,-202.5 -130,-210 -40,52.5 -62.5,132.5 -20,162.5"
         style="fill:#f5f09d;fill-opacity:1;fill-rule:nonzero;stroke:none"
         id="path52"
         inkscape:connector-curvature="0" />
      <path
         d="m 6160,2572.75 c 0,0 -55,-77.5 -32.5,-97.5 22.5,-20 87.5,-22.5 102.5,82.5 -37.5,0 -70,15 -70,15"
         style="fill:#a55429;fill-opacity:1;fill-rule:nonzero;stroke:none"
         id="path54"
         inkscape:connector-curvature="0" />
      <path
         d="m 6042,4300.23 c -122.75,2.38 -232.52,51.16 -238.03,186.43 -2.3,56.54 10.56,116.9 32.71,168.98 4.08,9.61 -5.77,23.4 -16.68,19.97 -61.28,-19.26 -122.56,-38.51 -183.84,-57.78 -6.47,-2.03 -11.66,-6.06 -12.33,-13.35 -8.5,-92.59 -22.27,-200.24 2.53,-291.05 13.34,-48.87 58.97,-82.07 100.97,-105.1 30.28,-16.61 63.07,-27.9 96.06,-37.69 35.53,-10.55 94.14,-8.03 123.19,-28.27 41.7,-29.06 48.41,-107.74 52.13,-153.34 1.88,-23.05 2.06,-48.27 -3.85,-70.82 -4.11,-15.7 -94.16,18.62 -110.5,24.87 -56.84,21.75 -140.5,71.14 -149.4,139.96 -1.47,11.38 -16.14,16.02 -24.48,8.84 -33.11,-28.51 -58.12,-66.73 -78.83,-104.66 -7.85,-14.38 -37.69,-59.52 -27.45,-76.05 11.28,-18.19 24.12,-34.93 38.22,-51.03 92.97,-106.1 229.75,-166.57 367.86,-183.32 19.26,-2.34 21.99,27.55 2.84,29.87 -123.3,14.96 -238.6,65.5 -328.2,152.27 -12.89,12.48 -24.7,26.03 -35.93,40 -22.78,28.34 -1.57,54.93 14.36,84.1 16.98,31.11 39.5,62.66 66.54,85.94 -8.16,2.94 -16.32,5.89 -24.48,8.84 8.23,-63.66 72.83,-115.51 125.1,-142.72 35.57,-18.53 72.7,-31.65 111.41,-42.01 20.11,-5.38 53.91,-21.61 71.14,-3.62 26.9,28.1 16.92,90.27 13.36,124.52 -5.09,48.78 -18.17,114.15 -57.17,148.17 -25.19,21.98 -60.9,19.69 -92.43,25.97 -53.66,10.69 -106.93,28.97 -153.92,57.16 -76.54,45.93 -77.69,117.85 -77.3,198.71 0.24,52.55 3.3,105.3 8.11,157.63 -4.11,-4.46 -8.22,-8.91 -12.33,-13.36 61.28,19.26 122.56,38.52 183.83,57.78 -5.55,6.66 -11.12,13.32 -16.67,19.98 -26.54,-62.38 -38.97,-134.23 -32.91,-201.62 12.57,-139.55 138.24,-191.65 263.54,-194.08 19.25,-0.37 22.17,29.5 2.83,29.88"
         style="fill:#231f20;fill-opacity:1;fill-rule:nonzero;stroke:none"
         id="path124"
         inkscape:connector-curvature="0" />
      <path
         d="m 5989.71,4303.65 c -19.97,106.85 -21.91,220.41 0.16,326.89 -4.11,-4.46 -8.22,-8.9 -12.33,-13.36 69.96,21.91 139.4,45.5 208.67,69.51 -6.83,6.25 -13.67,12.5 -20.51,18.75 -126.7,-261.3 -80.62,-587.89 -3.33,-856.09 5.31,-18.39 34.91,-13.37 29.55,5.21 -76.06,263.88 -122.71,583.42 1.93,840.47 6.43,13.27 -9.62,22.53 -20.51,18.76 -66.73,-23.13 -133.61,-45.96 -201.02,-67.07 -7.07,-2.21 -10.81,-6.02 -12.33,-13.35 -22.52,-108.66 -20.22,-225.83 0.17,-334.93 3.55,-19.01 33.1,-13.82 29.55,5.21"
         style="fill:#231f20;fill-opacity:1;fill-rule:nonzero;stroke:none"
         id="path126"
         inkscape:connector-curvature="0" />
      <path
         d="m 6165.8,3803.96 c 106.87,165.45 159.37,377.38 145.18,572.65 -2.88,39.72 -10.39,78.91 -19.88,117.52 -5.52,22.57 90.68,56.32 106.22,62.49 51.46,20.44 107.04,33.28 162.13,38.84 17.68,1.78 -10.44,13.23 1.03,-2.64 12.21,-16.91 24.42,-33.81 36.63,-50.72 19.9,-27.56 39.8,-55.12 59.71,-82.68 4.28,8.22 8.57,16.43 12.86,24.64 -89.92,12.82 -224.63,-2.16 -231.71,-115.94 -2.97,-47.75 -18.07,-169.31 64.47,-157.85 60.89,8.46 118.75,49.29 167.65,84.58 -7.76,1.67 -15.51,3.34 -23.26,5 15.86,-42.28 22.65,-88.39 21.26,-133.35 -1.99,-63.57 -160.62,-43.94 -198.01,-39.61 -6.13,0.71 -13.88,-3.4 -15.49,-9.73 -19.41,-76.19 -47.18,-141.99 -48.13,-221.77 -0.23,-19.24 29.64,-22.16 29.88,-2.83 0.92,76.9 27.69,140.82 46.39,214.19 -5.16,-3.25 -10.32,-6.49 -15.48,-9.73 74.18,-8.6 165.91,-16.71 223.84,40.26 18.03,17.73 6.47,70.86 3.6,93.71 -3.49,27.66 -10.96,55.63 -20.75,81.75 -3.65,9.69 -16.03,10.22 -23.27,5 -31.98,-23.09 -65.87,-43.64 -101.28,-60.99 -28.15,-13.79 -73.31,-33.15 -81.7,15.06 -6,34.43 -4.89,84.51 3.63,118.41 18.6,73.96 136.54,72.37 195.53,63.97 14.05,-2 20.02,14.72 12.86,24.64 -19.92,27.56 -39.82,55.12 -59.72,82.68 -9.92,13.74 -32.7,62.49 -52.73,64.37 -31.5,2.96 -68.86,-8.83 -98.9,-15.92 -73.81,-17.44 -143.06,-48.53 -206.37,-90 -3.97,-2.61 -6.29,-9.54 -5.07,-14.04 61.54,-225.55 11.14,-488.4 -115.69,-684.76 -10.48,-16.22 14.05,-33.49 24.57,-17.2"
         style="fill:#231f20;fill-opacity:1;fill-rule:nonzero;stroke:none"
         id="path128"
         inkscape:connector-curvature="0" />
      <path
         d="m 6359.57,3871.16 c 40.48,0.82 80.85,5.51 120.71,12.37 31.46,5.41 62.14,14 92.1,24.88 24.84,9.03 46.72,29.76 73.99,28.94 48.06,-1.43 92.22,-47.63 112.59,-87.25 34.7,-67.45 -22.6,-111.04 -81.41,-130.43 -18.32,-6.04 -5.27,-33.09 12.87,-27.1 54.33,17.9 113.6,55.12 108.93,120.39 -3.96,55.04 -41.79,101.26 -86.27,130.88 -53.27,35.45 -89.17,20.65 -141.71,-3.48 -62.76,-28.84 -140.28,-37.92 -208.97,-39.33 -19.14,-0.39 -22.13,-30.27 -2.83,-29.87"
         style="fill:#231f20;fill-opacity:1;fill-rule:nonzero;stroke:none"
         id="path130"
         inkscape:connector-curvature="0" />
      <path
         d="m 6449.43,3089.62 c 46.86,69.26 91.7,141.11 127.12,216.96 16.99,36.38 32.21,78.29 21.34,118.49 -12.17,45 -61.65,75.51 -96.98,100.39 0.37,-7.91 0.73,-15.82 1.1,-23.73 50.76,38.32 118.11,54.2 180.59,51.65 14.07,-0.57 23.58,18.86 10.02,27.23 -89.66,55.32 -168.05,73.77 -273.83,57.63 3.02,-9.44 6.03,-18.88 9.04,-28.32 33.77,15.5 65.6,34.85 95.19,57.26 10.19,7.73 4.44,25.84 -8.29,26.38 -47.27,2.01 -94.54,3.72 -141.82,5.25 2.76,-8.79 5.53,-17.58 8.29,-26.38 45.34,31.42 83.35,74.53 106.79,124.42 6.07,12.92 -9.42,23.14 -20.51,18.76 -110.84,-43.79 -239.53,-51.26 -357.2,-35.38 -6.28,0.85 -13.67,-3.52 -15.49,-9.74 -10.13,-34.73 -86.46,-62.45 -123.08,-73.91 -83.4,-26.09 -171.98,-35.6 -258.77,-41.72 -161.32,-11.38 -323.98,-4.23 -485.08,7.18 -10.41,0.74 -21.2,-11.13 -14.97,-21.37 61.53,-101.26 147.08,-188.46 265.73,-216.37 141.74,-33.35 281.85,38.24 393.08,119.45 -6.48,7.62 -12.94,15.25 -19.41,22.88 -86.22,-81.75 -156.77,-182.36 -217.93,-283.85 -5.32,-8.81 -2.01,-18.32 7.08,-22.68 103.85,-49.78 196.21,-135.65 262.27,-228.59 142.41,-200.3 122.26,-457.74 1.14,-662.66 -6.25,-10.56 1.19,-26.32 14.9,-23.38 42.04,9.06 85.81,19.08 124.63,37.99 -6.24,7.4 -12.48,14.78 -18.72,22.16 -26.07,-48.69 -76.6,-87.84 -118.23,-123.22 -11.12,-9.46 -2.52,-29.35 12.32,-26.22 34.15,7.2 68.09,16.17 101.32,26.82 39.94,12.81 97.37,27.62 121.08,66.02 -8.78,4.6 -17.57,9.21 -26.36,13.81 -10.91,-29.89 -30.1,-57.19 -48.1,-83.27 -9.15,-13.26 5.21,-26.94 18.72,-22.16 106.44,37.66 307.35,142.9 222.47,282.62 -9.93,16.34 -37.17,3.68 -27.11,-12.88 73.52,-121.02 -117.65,-210.58 -208.23,-242.63 6.24,-7.39 12.48,-14.78 18.72,-22.16 19.44,28.15 39.88,57.74 51.68,90.07 5.73,15.72 -17.24,28.58 -26.36,13.81 -20.9,-33.85 -80.2,-47.1 -115.54,-57.97 -28.75,-8.84 -58.08,-16.33 -87.51,-22.53 4.1,-8.74 8.21,-17.48 12.32,-26.22 43.29,36.79 96.18,78.09 123.38,128.9 6.63,12.36 -3.99,29.34 -18.72,22.16 -36.5,-17.78 -77.42,-27.03 -116.98,-35.54 4.97,-7.8 9.93,-15.59 14.89,-23.38 123.31,208.62 146.58,462.84 14.5,673.28 -68.53,109.17 -175.11,207.24 -292.07,263.32 2.36,-7.56 4.72,-15.12 7.08,-22.68 59.77,99.19 128.54,198.32 212.77,278.18 14.1,13.37 -3.81,34.27 -19.41,22.88 -107.49,-78.46 -238.24,-143.6 -374.41,-111.57 -105.25,24.77 -183.77,109.43 -237.88,198.49 -4.99,-7.13 -9.98,-14.26 -14.97,-21.38 164.05,-11.62 328.86,-17.52 493.12,-6.85 90.05,5.84 181.95,16.76 268.14,44.67 41.75,13.52 122.02,39.97 136.65,90.09 -5.17,-3.24 -10.32,-6.49 -15.49,-9.73 123.01,-16.59 257.19,-7.57 372.9,38.16 -6.83,6.25 -13.67,12.5 -20.51,18.75 -21.27,-45.27 -57.06,-83.54 -98.05,-111.95 -10.62,-7.35 -4.13,-25.97 8.29,-26.37 47.28,-1.54 94.55,-3.25 141.81,-5.25 -2.76,8.79 -5.52,17.58 -8.29,26.37 -27.55,-20.87 -57.22,-38.61 -88.64,-53.04 -15.66,-7.19 -7.53,-30.85 9.04,-28.32 98.05,14.95 168.59,-1.56 251.41,-52.66 3.34,9.07 6.68,18.15 10.02,27.22 -70.98,2.9 -145.35,-15.26 -202.83,-58.65 -7.81,-5.89 -6.47,-18.4 1.1,-23.73 34.98,-24.63 81.18,-51.75 88.15,-97.71 6.18,-40.84 -25.51,-92.45 -43.72,-127.06 -30.72,-58.38 -66.31,-114.66 -103.27,-169.29 -10.84,-16.02 13.72,-33.25 24.57,-17.2"
         style="fill:#231f20;fill-opacity:1;fill-rule:nonzero;stroke:none"
         id="path132"
         inkscape:connector-curvature="0" />
      <path
         d="m 6212.1,2563.88 c -3.85,-28.85 -16.4,-78.48 -52.5,-79.89 -46.45,-1.81 3.94,68.01 9.52,79 11.52,22.72 19.21,45.43 25.13,70.13 27.14,113.3 9.19,228.59 -10.25,341.41 -7.86,45.64 -18.96,98.47 7.07,140.25 29.9,47.97 77.2,49.94 121.28,23.27 98.25,-59.42 159.47,-190.54 175.67,-299.8 2.84,-19.15 32.38,-13.9 29.55,5.21 -18.81,126.75 -98.16,289.91 -226.29,338.16 -47.23,17.79 -88.36,-7.7 -119.35,-42.41 -37.32,-41.82 -27.39,-106.29 -19.68,-156.43 14.54,-94.7 31.62,-185.82 22.83,-282.2 -3.58,-39.29 -11.84,-78.52 -27.77,-114.69 -13.08,-29.7 -35.13,-54.37 -41.71,-86.68 -8.86,-43.44 61.3,-53.69 87.2,-35.8 31.08,21.46 44.37,61.57 49.18,97.64 2.56,19.23 -27.33,21.93 -29.88,2.83"
         style="fill:#231f20;fill-opacity:1;fill-rule:nonzero;stroke:none"
         id="path134"
         inkscape:connector-curvature="0" />
      <path
         d="m 6312.76,3360.81 c -28.75,-55.67 5.16,-130.42 33.75,-178.56 67.46,-113.6 184.99,-190.69 300.78,-247.79 17.38,-8.57 27.56,19.68 10.41,28.14 -106.25,52.4 -206.91,120.81 -275.47,219.17 -29.46,42.26 -68.18,116.63 -41.32,168.63 8.88,17.19 -19.39,27.35 -28.15,10.41"
         style="fill:#231f20;fill-opacity:1;fill-rule:nonzero;stroke:none"
         id="path136"
         inkscape:connector-curvature="0" />
      <path
         d="m 6509.23,2885.07 c 93.98,39.45 288.39,89.43 325.69,-46.96 38.98,-142.44 -162.44,-157.56 -255.95,-163.69 -19.28,-1.27 -13.87,-30.8 5.22,-29.55 123.03,8.08 324.25,37.73 277.78,207.6 -42.15,154.05 -259.83,104.11 -365.61,59.71 -17.84,-7.49 -4.94,-34.58 12.87,-27.11"
         style="fill:#231f20;fill-opacity:1;fill-rule:nonzero;stroke:none"
         id="path138"
         inkscape:connector-curvature="0" />
      <path
         d="m 6330.4,2748.98 c 35.23,90.23 67.87,255.61 -62.55,280.14 -7.88,1.49 -15.85,-5.91 -16.36,-13.52 -3.75,-57.1 14.65,-115.06 40.79,-165.43 8.87,-17.11 36.04,-4.34 27.1,12.87 -23.68,45.63 -41.41,97.91 -38,149.73 -5.46,-4.51 -10.91,-9.01 -16.36,-13.52 104.79,-19.71 63.93,-171.53 37.24,-239.86 -7.05,-18.07 21.12,-28.4 28.14,-10.41"
         style="fill:#231f20;fill-opacity:1;fill-rule:nonzero;stroke:none"
         id="path140"
         inkscape:connector-curvature="0" />
      <path
         d="m 6169.24,2547.69 c 58.07,3.89 115.52,-14.56 163.59,-46.57 32.36,-21.54 44.88,-46.72 86.78,-48.87 52.62,-2.69 67.68,45.73 86.94,83.5 34.34,67.34 75.5,134.01 128.11,188.64 24.2,25.13 53.39,47.99 88.52,53.84 22.34,3.72 14.89,5.63 -2.13,-3.78 -27.41,-15.16 -59.35,-22.07 -89.55,-29.12 -18.76,-4.39 -13.65,-33.96 5.22,-29.55 11.32,2.64 184.96,51.52 120.83,88.61 -57.67,33.34 -135.72,-48.2 -167.42,-84.6 -53.24,-61.12 -94.58,-134.98 -128.69,-208.26 -32.92,-70.71 -96.53,8.7 -136.62,29.59 -50.35,26.24 -103.95,39.92 -160.8,36.12 -19.28,-1.29 -13.87,-30.82 5.22,-29.55"
         style="fill:#231f20;fill-opacity:1;fill-rule:nonzero;stroke:none"
         id="path142"
         inkscape:connector-curvature="0" />
      <path
         d="m 5887.04,3583.77 c -161.8,20.07 -332.33,20.6 -492.51,-10.67 -18.96,-3.7 -13.79,-33.26 5.22,-29.54 157.75,30.79 325.07,30.11 484.46,10.34 19.25,-2.39 21.97,27.5 2.83,29.87"
         style="fill:#231f20;fill-opacity:1;fill-rule:nonzero;stroke:none"
         id="path144"
         inkscape:connector-curvature="0" />
      <path
         d="m 5422.97,3551.25 c 83.56,-95.96 268.17,-56.99 357.31,11.39 15.35,11.78 -4.08,34.64 -19.41,22.88 -75.77,-58.13 -243.38,-97.12 -315.01,-14.86 -12.69,14.57 -35.63,-4.79 -22.89,-19.41"
         style="fill:#231f20;fill-opacity:1;fill-rule:nonzero;stroke:none"
         id="path146"
         inkscape:connector-curvature="0" />
      <path
         d="m 6574.69,3360.87 c 10.79,-148.8 67.22,-300.97 153.02,-422.05 11.19,-15.77 34.01,3.72 22.9,19.42 -82.9,116.94 -135.96,264.3 -146.37,407.84 -1.41,19.29 -30.94,13.89 -29.55,-5.21"
         style="fill:#231f20;fill-opacity:1;fill-rule:nonzero;stroke:none"
         id="path148"
         inkscape:connector-curvature="0" />
      <path
         d="m 6535.29,3261.08 c 14.89,-77.04 29.77,-154.08 44.65,-231.11 3.67,-18.98 33.22,-13.8 29.55,5.2 -14.88,77.04 -29.76,154.08 -44.65,231.12 -3.67,18.97 -33.22,13.79 -29.55,-5.21"
         style="fill:#231f20;fill-opacity:1;fill-rule:nonzero;stroke:none"
         id="path150"
         inkscape:connector-curvature="0" />
      <path
         d="m 6498.36,3215.2 c 0,-60.41 0,-120.81 0,-181.21 0,-19.21 29.88,-22.16 29.88,-2.84 0,60.41 0,120.81 0,181.21 0,19.21 -29.88,22.16 -29.88,2.84"
         style="fill:#231f20;fill-opacity:1;fill-rule:nonzero;stroke:none"
         id="path152"
         inkscape:connector-curvature="0" />
      <path
         d="m 6232.3,3601.49 c -53.73,-9.6 -104.48,-40.46 -143.49,-77.49 -62.33,-59.14 -111.05,-173.02 -80.87,-258.01 22.82,-64.28 101.26,-31.05 135.38,0.87 37.94,35.48 52.38,90.27 66.97,138.1 16.49,54.07 29.75,114.91 18.39,171.23 -3.82,18.93 -33.38,13.77 -29.55,-5.21 16.21,-80.34 -15.63,-198.5 -61.5,-265.16 -34.37,-49.95 -107.54,-71.24 -107.91,10.38 -0.54,116.86 91.14,234.91 207.8,255.75 19.04,3.4 13.84,32.94 -5.22,29.54"
         style="fill:#231f20;fill-opacity:1;fill-rule:nonzero;stroke:none"
         id="path154"
         inkscape:connector-curvature="0" />
      <path
         d="m 6141.21,3251.28 c -33.44,-56.74 -93.99,-86.35 -155.84,-54.94 -17.26,8.78 -27.43,-19.48 -10.41,-28.13 72.95,-37.07 150.93,-1.85 190.82,65.86 9.77,16.57 -14.74,33.9 -24.57,17.21"
         style="fill:#231f20;fill-opacity:1;fill-rule:nonzero;stroke:none"
         id="path156"
         inkscape:connector-curvature="0" />
      <path
         d="m 6475.01,3393.66 c 17.04,-87.77 -17.33,-175.03 -115.12,-183.64 -19.27,-1.69 -13.9,-31.23 5.22,-29.54 113.89,10.03 159.54,114.93 139.45,218.39 -3.69,18.97 -33.24,13.8 -29.55,-5.21"
         style="fill:#231f20;fill-opacity:1;fill-rule:nonzero;stroke:none"
         id="path158"
         inkscape:connector-curvature="0" />
      <path
         d="m 5916.19,3027.28 c -72.36,-175.61 -85.49,-347.08 -63.73,-535.69 2.23,-19.24 31.76,-13.92 29.55,5.21 -21.21,183.8 -8.1,349.16 62.33,520.07 7.39,17.94 -20.8,28.24 -28.15,10.41"
         style="fill:#231f20;fill-opacity:1;fill-rule:nonzero;stroke:none"
         id="path160"
         inkscape:connector-curvature="0" />
      <path
         d="m 5871.55,3087.68 c -123.2,-247.68 -206.62,-576.19 -109.79,-844.16 6.26,6.84 12.51,13.67 18.76,20.51 -41.4,19.71 -80.32,44.85 -117.41,71.75 -12.61,9.14 -27.87,-5.31 -22.16,-18.72 29.76,-70.04 59.53,-140.07 89.29,-210.1 6.26,6.83 12.51,13.67 18.76,20.51 -42.1,18.88 -86.78,42.57 -132.48,50.77 -12.21,2.19 -18.64,-11.68 -14.97,-21.38 34.54,-91.15 65.25,-183.85 93.32,-277.19 7.8,4.97 15.59,9.94 23.38,14.9 -32.39,19.26 -64.77,38.52 -97.17,57.78 -11.42,6.8 -31.02,-4.85 -22.15,-18.72 53.93,-84.3 89.32,-186.31 93.16,-286.29 8.8,2.76 17.59,5.53 26.39,8.29 -33.34,34.69 -80.07,55.79 -118.92,83.55 -71.45,51.04 -119.54,120.66 -140.38,206.12 -3.86,15.8 -28.74,16.49 -29.72,-1.19 -2.65,-48.54 -1.66,-97.67 5.42,-145.84 8.74,4.1 17.48,8.21 26.21,12.31 -79.7,102.21 -111.41,245.87 -81.4,371.14 3.81,15.9 -15.66,28.44 -26.36,13.81 -18.65,-25.49 -36.67,-51.45 -52.53,-78.79 9.01,-2 18.04,-4 27.06,-5.99 -11.71,118.19 11.36,282.87 99.98,372.01 13.73,13.82 -3.49,33.86 -19.41,22.89 -31,-21.38 -61.75,-43.11 -91.92,-65.65 7.93,-5.56 15.85,-11.11 23.78,-16.65 31.04,93.8 91.33,162.89 167.9,223 43.47,34.12 101.63,65.55 127.94,116.38 32.91,63.6 42.47,139.9 59.04,208.84 16.79,69.93 34.86,163.26 95.1,209.78 15.32,11.82 -4.12,34.69 -19.41,22.88 -56.34,-43.5 -77.22,-121.48 -94.9,-186.94 -20.65,-76.42 -30.68,-157.53 -61.46,-230.84 -25.35,-60.38 -103.25,-98.2 -151.57,-138.01 -69.65,-57.35 -122.34,-128.72 -150.78,-214.68 -4.86,-14.7 11.77,-25.62 23.78,-16.65 30.16,22.54 60.92,44.28 91.91,65.65 -6.47,7.63 -12.94,15.26 -19.41,22.89 -96.81,-97.39 -122.98,-270.26 -110.12,-400.12 1.26,-12.64 20.63,-17.09 27.06,-5.99 15.87,27.33 33.89,53.3 52.53,78.79 -8.78,4.6 -17.57,9.21 -26.36,13.8 -32.67,-136.4 -0.22,-289.55 86.68,-400.96 9.51,-12.21 28.29,-1.88 26.21,12.31 -6.71,45.6 -7.61,91.84 -5.08,137.8 -9.92,-0.41 -19.82,-0.8 -29.72,-1.2 19.46,-79.77 58.98,-145.39 120.29,-199.84 44.35,-39.38 104.79,-61.47 145.67,-104.02 7.87,-8.2 26.92,-5.9 26.38,8.29 -4.06,105.47 -38.92,212.88 -95.93,301.99 -7.39,-6.24 -14.78,-12.48 -22.16,-18.72 32.39,-19.27 64.77,-38.53 97.16,-57.78 9.88,-5.87 27.51,1.13 23.38,14.89 -28.85,95.9 -60.28,191.2 -95.76,284.84 -4.99,-7.12 -9.98,-14.25 -14.97,-21.37 42.7,-7.65 85.53,-31.37 124.9,-49.04 12.73,-5.7 23.56,9.22 18.76,20.51 -29.76,70.04 -59.53,140.07 -89.29,210.1 -7.4,-6.24 -14.78,-12.48 -22.16,-18.72 39.23,-28.44 80.43,-54.48 124.21,-75.33 13.17,-6.26 22.72,9.53 18.76,20.51 -93.89,259.82 -8.44,581.12 110.83,820.88 8.62,17.35 -19.63,27.53 -28.15,10.41"
         style="fill:#231f20;fill-opacity:1;fill-rule:nonzero;stroke:none"
         id="path162"
         inkscape:connector-curvature="0" />
      <path
         d="m 5869.86,2550.33 c 39.05,11.99 86.47,21.46 126.13,8.58 18.39,-5.96 28.81,22.17 10.41,28.15 -45.03,14.62 -97.29,6.46 -141.75,-7.18 -18.24,-5.61 -13.25,-35.22 5.21,-29.55"
         style="fill:#231f20;fill-opacity:1;fill-rule:nonzero;stroke:none"
         id="path164"
         inkscape:connector-curvature="0" />
      <path
         d="m 6255.53,2359.09 c 59.49,-176.17 22.45,-390.71 -69.64,-549.61 -4.84,-8.34 -2.52,-19 7.08,-22.68 26.91,-10.31 59.03,18.5 60.69,-27.14 2.06,-56.92 -23.23,-120.48 -39.6,-174.2 -44.03,-144.47 -100.54,-286.61 -169.79,-420.84 -4.06,-7.89 2.32,-15.91 8.86,-19.28 26.53,-13.64 118.52,-91.33 42.96,-108 -30.6,-6.75 -66.58,4.52 -94.81,15.31 -35.25,13.47 -78.41,48.64 -30.69,77.02 22.18,13.2 42.97,29.17 56.38,51.6 53.28,89.09 93.56,190.51 124.49,289.21 20.36,64.95 58.73,182.54 -18.41,223.36 -110.63,58.55 20.65,274.64 56.4,334.8 9.84,16.53 -14.66,33.87 -24.57,17.21 -51.89,-87.32 -165.19,-276.27 -60.59,-368.59 13.02,-11.49 29.02,-13.27 37.27,-30.09 12.61,-25.68 5.65,-61.47 1.25,-88.27 -12.97,-79.05 -44.97,-156.07 -76.55,-229.23 -20.1,-46.55 -40.44,-95.88 -68.37,-138.44 -19.76,-30.13 -77.38,-38.63 -80.2,-79.78 -2.01,-29.23 13.06,-49.21 35.32,-66.57 38.27,-29.87 132.42,-60.208 176.3,-25.97 68.07,53.12 -16.61,129.29 -65.77,154.57 2.96,-6.42 5.91,-12.85 8.87,-19.27 79.18,153.49 142.37,317.34 188.1,483.88 12.79,46.59 37.18,111.39 15.46,157.88 -16.14,34.54 -48.37,9.69 -72.59,18.98 2.36,-7.56 4.73,-15.12 7.08,-22.68 98.02,169.13 135.42,392.38 72.18,579.69 -6.18,18.28 -33.24,5.25 -27.11,-12.87"
         style="fill:#231f20;fill-opacity:1;fill-rule:nonzero;stroke:none"
         id="path166"
         inkscape:connector-curvature="0" />
      <path
         d="m 6284.12,2282.32 c 64.94,-40.21 110.26,-109.68 134.24,-180.61 7.38,6.24 14.77,12.48 22.16,18.72 -26.6,18.74 -55.48,34.37 -84.04,49.9 -14.69,8 -30.82,-7.77 -20.03,-21.99 43.37,-57.29 68.76,-129.42 75.44,-200.38 8.74,4.11 17.49,8.22 26.22,12.32 -22.49,32.12 -47.78,62.18 -76.16,89.29 -12.76,12.18 -30.21,0.12 -25,-16.15 12.78,-39.82 16.42,-94.66 17,-139.21 8.79,2.76 17.58,5.52 26.38,8.29 -30.22,41.27 -54.26,87.4 -76.68,133.29 -8.47,17.35 -35.61,4.54 -27.11,-12.87 23.6,-48.28 49.11,-96.43 80.9,-139.84 7.33,-9.99 26.55,-4.59 26.39,8.29 -0.69,51.87 -3.82,105.19 -19.77,154.92 -8.33,-5.38 -16.66,-10.76 -25,-16.14 28.39,-27.11 53.67,-57.16 76.17,-89.28 9.34,-13.33 27.48,-1.08 26.22,12.31 -7.2,76.35 -35.59,153.11 -82.13,214.57 -6.68,-7.33 -13.36,-14.67 -20.04,-21.99 28.55,-15.54 57.43,-31.16 84.03,-49.9 13.34,-9.41 26.67,5.35 22.16,18.72 -25.49,75.38 -75.25,149.64 -144.14,192.31 -16.39,10.16 -33.69,-14.36 -17.21,-24.57"
         style="fill:#231f20;fill-opacity:1;fill-rule:nonzero;stroke:none"
         id="path168"
         inkscape:connector-curvature="0" />
      <path
         d="m 5994.18,1869.88 c -68.4,-106.28 -146.97,-224.33 -178.73,-347.77 -4.71,-18.3 1.01,-20.92 6.83,-41.09 7.82,-27.17 -6.36,-51.07 -26.05,-68.03 -22.64,-19.5 -27.84,-12.93 -35.94,-46.63 -17.88,-74.48 -26.07,-152.18 -31.39,-228.51 -0.47,-6.86 3.35,-12.96 9.73,-15.49 45.83,-18.14 90.4,-38.21 132.19,-64.55 12.56,-7.92 82.76,-58.931 50.9,-75.759 -41.57,-21.961 -111.6,-6.11 -154.99,1.879 -26.91,4.961 -53.37,12.722 -78.4,23.74 -38.43,16.94 -16.44,52.46 -3.09,81.72 20.32,44.5 29.39,84.71 36.93,132.73 8.24,52.48 15.49,105.12 22.64,157.76 1.23,8.94 4.91,20.5 3.3,29.66 -2.75,15.52 -18.55,32.25 -23.41,48.04 -9.45,30.7 23.15,37.07 39.35,50.83 15.7,13.34 22.62,58.81 30.05,78.12 13.67,35.5 27.38,70.89 38.76,107.21 16.41,52.34 28.48,113.04 0.69,163.46 -9.28,16.85 -36.46,4.12 -27.1,-12.87 44.33,-80.46 -21.17,-196.23 -50.16,-272.7 -6.34,-16.7 -8.86,-36.87 -24.61,-47.4 -14.04,-9.4 -24.56,-18.2 -32.67,-33.12 -13.7,-25.24 0.17,-54.5 12.39,-77.1 9.02,-16.69 3.25,-33.55 0.35,-54.68 -4.71,-34.32 -9.59,-68.63 -14.67,-102.9 -4.47,-30.26 -9.07,-60.54 -14.79,-90.58 -6.8,-35.64 -27.05,-67.81 -40.33,-101.25 -45.85,-115.428 179.64,-123.518 246.91,-119.659 39.55,2.258 80.32,18.039 67.26,64.679 -21.02,75.11 -144.68,116.19 -207.09,140.88 3.25,-5.16 6.49,-10.32 9.74,-15.48 5.44,78.2 14.37,157.29 32.69,233.58 1.66,6.89 -1.73,4.45 10.1,11.65 10.33,6.28 20.13,13.98 27.98,23.21 20.83,24.47 27.11,51.27 22.27,82.78 -2.94,19.09 -7.25,30.86 -0.97,50.37 6.34,19.7 14.74,38.76 23.13,57.64 18.73,42.09 40.84,82.68 63.36,122.84 25.77,45.95 52.89,91.28 81.41,135.58 10.45,16.24 -14.08,33.51 -24.57,17.21"
         style="fill:#231f20;fill-opacity:1;fill-rule:nonzero;stroke:none"
         id="path170"
         inkscape:connector-curvature="0" />
      <path
         d="m 6062.41,1759.79 c -46,-48.61 -111.78,-79.33 -176.74,-91.21 -19.02,-3.49 -13.81,-33.03 5.22,-29.55 69.72,12.76 141.5,45.64 190.94,97.87 13.13,13.89 -6.1,36.95 -19.42,22.89"
         style="fill:#231f20;fill-opacity:1;fill-rule:nonzero;stroke:none"
         id="path172"
         inkscape:connector-curvature="0" />
      <path
         d="m 5789.9,1673.99 c -28.02,6.12 -56.02,12.26 -84.04,18.39 -18.91,4.13 -21.46,-25.8 -2.83,-29.88 28.01,-6.13 56.02,-12.26 84.04,-18.39 18.91,-4.13 21.46,25.8 2.83,29.88"
         style="fill:#231f20;fill-opacity:1;fill-rule:nonzero;stroke:none"
         id="path174"
         inkscape:connector-curvature="0" />
      <path
         d="m 5471.52,1833.8 c 2.4,-102.02 34.83,-218.59 80.18,-309.87 1.29,5.96 2.57,11.92 3.85,17.88 -19.05,-19.51 -35.89,-39.24 -35.25,-67.85 0.91,-39.59 40.74,-60.59 43.82,-99.52 3.86,-48.77 3.5,-97.99 3.14,-146.89 -0.12,-15.19 -0.39,-30.39 -0.72,-45.58 -0.52,-24.65 -3.66,-10.3 -28.13,-19.93 -61.18,-24.08 -197.39,-59.56 -208.98,-140 -9,-62.56 89.74,-68.11 127.98,-67.528 51.38,0.777 155.37,10.847 184.88,62.058 18.12,31.42 15.94,75.21 14.06,109.94 -1.56,28.71 -9.08,55.63 -10.18,84.73 -1.13,30.45 -0.8,60.95 -0.3,91.4 0.59,36.67 2.2,73.34 4.49,109.93 0.07,1.09 24.12,24.8 27.14,30.21 7.77,13.89 7.18,29.26 4.85,44.36 -2.07,13.55 -10.98,25.47 -18.77,36.25 -4.75,6.62 -11.89,13.29 -18.38,18.21 -7.49,5.67 -5,51.24 -5.16,55.31 -1.42,35.98 -2.03,72 -2.07,108 -0.03,19.2 -29.9,22.15 -29.88,2.83 0.05,-41.25 1.07,-82.49 2.69,-123.7 0.59,-14.81 -4.12,-46.14 6.06,-58.13 27.76,-32.65 56.52,-57.55 9.11,-97.03 -13.94,-11.6 -7.72,-55.09 -8.34,-69.96 -2.53,-59.66 -2.85,-119.39 0.18,-179.03 2.57,-50.39 33.1,-134.03 -23.6,-164.7 -42.93,-23.21 -97.18,-30.241 -145.29,-30.979 -42.79,-0.652 -126.75,16.569 -65.93,69.079 54.74,47.27 138.41,69.94 204.48,95.85 4.54,1.78 8.35,7.27 8.51,12.14 1.67,54.7 1.78,109.48 0.32,164.18 -0.7,26.12 4.3,66.78 -6.96,90.53 -7.56,15.92 -26.23,28.56 -35.17,44.86 -12.74,23.27 5.86,42.77 20.81,58.07 4.69,4.82 7.04,11.45 3.85,17.88 -42.65,85.84 -75.15,197.78 -77.4,294.17 -0.45,19.13 -30.34,22.12 -29.89,2.83"
         style="fill:#231f20;fill-opacity:1;fill-rule:nonzero;stroke:none"
         id="path176"
         inkscape:connector-curvature="0" />
      <path
         d="m 6095.94,1692.95 c -43.26,-168.6 -110.42,-336.73 -201.55,-484.94 -3.75,-6.09 -3.37,-12.56 0.84,-18.31 32.78,-44.49 -4.3,-66.36 -49.5,-75.51 -18.92,-3.84 -13.77,-33.39 5.22,-29.56 68.93,13.97 115.43,58.96 67.18,124.49 0.27,-6.11 0.55,-12.21 0.83,-18.31 92.56,150.54 161.19,320.51 205.12,491.73 4.77,18.58 -23.34,29.13 -28.14,10.41"
         style="fill:#231f20;fill-opacity:1;fill-rule:nonzero;stroke:none"
         id="path178"
         inkscape:connector-curvature="0" />
      <path
         d="m 5990.23,1686.8 c 13,-100.71 -30.96,-209.33 -66.36,-301.57 -22.66,-59.01 -47.95,-117.41 -76.26,-173.95 5.16,3.24 10.32,6.48 15.49,9.73 -42.49,2.32 -86.4,-15.83 -124.53,-33.05 -17.62,-7.95 -4.76,-35.06 12.88,-27.1 33.22,15 71.75,32.29 108.81,30.27 7.34,-0.4 12.34,3.44 15.49,9.74 31.81,63.53 59.51,129.31 84.55,195.78 34.25,90.89 72.22,196.67 59.49,295.37 -2.49,19.21 -32.02,13.91 -29.56,-5.22"
         style="fill:#231f20;fill-opacity:1;fill-rule:nonzero;stroke:none"
         id="path180"
         inkscape:connector-curvature="0" />
      <path
         d="m 6786.88,3846.28 c 117.42,115.43 151.86,309.3 183.1,463.05 1.72,8.49 -6.16,15.05 -13.52,16.35 -44.66,7.92 -104.74,18.45 -131.57,60.06 -15.27,23.71 -2.16,64.95 2.95,89.91 9.28,45.3 22.49,90.14 36.66,134.15 -7.56,-2.37 -15.12,-4.73 -22.67,-7.08 120.37,-84.7 288.14,-107.35 430.73,-103.1 -4.45,4.12 -8.91,8.23 -13.36,12.34 11.14,-43.66 23.56,-89.42 16.71,-134.72 -10.34,-68.32 -101.14,-66.65 -152.31,-64.2 -8.65,0.41 -14.92,-5.18 -16.35,-13.52 -22.32,-130.13 -51.38,-259.25 -97.08,-383.33 -18.76,-50.92 -41.46,-100.45 -69.22,-147.1 -11.03,-18.53 -23.55,-36.11 -36.79,-53.12 -7.24,-9.27 -15.17,-17.93 -23.32,-26.4 -10.01,-10.41 -15.82,-2.12 -28.97,3.45 -78.73,33.39 -163.66,38.37 -243.3,6.59 -41.26,-16.46 -101.79,-74.56 -147.99,-51.27 -17.3,8.72 -27.47,-19.54 -10.41,-28.14 46.97,-23.69 94.34,12.8 134.42,34.59 95.37,51.85 190.63,41.22 287.4,-3.44 4.62,-2.13 11.24,-0.75 14.91,2.64 69.59,64.19 112.13,151.76 146.38,238.59 51.02,129.37 80.41,267.45 103.85,404.11 -5.46,-4.51 -10.91,-9.02 -16.36,-13.52 60.39,-2.9 137.68,-2.22 172.86,56.21 30.96,51.42 8.66,124.75 -4.88,177.78 -1.5,5.9 -6.46,12.54 -13.36,12.34 -137.69,-4.11 -299.98,15.91 -416.36,97.79 -7.65,5.39 -19.69,2.17 -22.67,-7.08 -19.94,-61.96 -39.04,-126.12 -46.57,-190.92 -10.86,-93.32 90.64,-120.5 163.83,-133.48 -4.5,5.45 -9.01,10.9 -13.52,16.35 -29.28,-144.15 -62.08,-334.32 -172.63,-443 -13.7,-13.47 5.58,-36.48 19.41,-22.88"
         style="fill:#231f20;fill-opacity:1;fill-rule:nonzero;stroke:none"
         id="path194"
         inkscape:connector-curvature="0" />
      <path
         d="m 6277.71,3681.82 c -72.26,25.93 -151.85,-0.12 -202.42,-55.13 -12.9,-14.04 6.32,-37.13 19.42,-22.88 43.37,47.18 109.86,72.38 172.58,49.87 18.24,-6.55 28.62,21.61 10.42,28.14"
         style="fill:#231f20;fill-opacity:1;fill-rule:nonzero;stroke:none"
         id="path196"
         inkscape:connector-curvature="0" />
      <path
         d="m 6317.56,3436.67 c -4.58,-28.52 -15.84,-93.37 31.27,-92.25 53.58,1.28 147.28,103.73 180.12,16.89 6.83,-18.08 33.9,-5.12 27.1,12.88 -17.21,45.52 -66.13,58.68 -110.19,44.23 -28.18,-9.23 -52.32,-25.4 -78.88,-38.11 -36.88,-17.67 -23.16,30.99 -19.54,53.52 3.08,19.16 -26.82,21.81 -29.88,2.84"
         style="fill:#231f20;fill-opacity:1;fill-rule:nonzero;stroke:none"
         id="path198"
         inkscape:connector-curvature="0" />
      <path
         d="m 6134.36,3390.87 c -5.76,-24.89 -21.32,-42.54 -34.78,-39.43 -13.45,3.11 -19.69,25.8 -13.94,50.69 5.76,24.89 21.32,42.54 34.77,39.43 13.46,-3.11 19.7,-25.8 13.95,-50.69"
         style="fill:#231f20;fill-opacity:1;fill-rule:nonzero;stroke:none"
         id="path200"
         inkscape:connector-curvature="0" />
      <path
         d="m 6424.36,3290.87 c -5.76,-24.89 -21.32,-42.54 -34.78,-39.43 -13.45,3.11 -19.69,25.8 -13.94,50.69 5.76,24.89 21.32,42.54 34.77,39.43 13.46,-3.11 19.7,-25.8 13.95,-50.69"
         style="fill:#231f20;fill-opacity:1;fill-rule:nonzero;stroke:none"
         id="path202"
         inkscape:connector-curvature="0" />
    </g>
  </g>
</svg>
